<svg width="115" height="57" viewBox="0 0 115 57" fill="none" xmlns="http://www.w3.org/2000/svg" style="width: 86px; height: auto; flex-shrink: 0">
  <path d="M13.616 6.763C13.882 7.21 13.758 8.064 13.688 8.534C13.687 8.543 13.686 8.552 13.685 8.56C13.668 8.672 13.663 8.778 13.656 8.901C13.64 9.199 13.62 9.595 13.425 10.431C13.425 10.675 13.421 10.921 13.413 11.164C13.361 12.417 13.32 13.449 13.034 15.084C12.791 16.146 12.554 17.629 12.325 18.958C12.324 18.991 12.324 19.024 12.323 19.057C12.313 19.692 12.307 20.481 12.185 20.974C12.03 21.602 11.896 22.022 11.782 22.377C11.49 24.375 11.251 26.391 11.148 28.413C11.147 28.431 11.146 28.449 11.146 28.467C11.114 29.106 11.096 29.745 11.096 30.382C11.095 30.968 11.106 31.558 11.127 32.143C11.189 32.485 11.263 32.804 11.333 33.106C11.431 33.526 11.519 33.899 11.553 34.208C11.634 34.949 11.562 35.795 11.514 36.426C11.506 36.53 11.499 36.625 11.493 36.717C11.514 36.896 11.536 37.074 11.558 37.254C11.598 37.583 11.637 37.919 11.675 38.248C11.653 38.283 11.631 38.319 11.608 38.355C11.323 38.806 11.344 39.345 11.368 40.192C11.378 40.561 11.389 40.988 11.374 41.491C11.364 41.815 11.247 41.983 11.151 42.12C11.123 42.16 11.097 42.197 11.075 42.236C11.003 42.366 11.084 42.502 11.18 42.663C11.304 42.872 11.453 43.123 11.321 43.457C10.901 44.517 11.185 44.982 11.4 45.339C11.463 45.442 11.52 45.538 11.552 45.635C11.653 45.945 11.546 46.397 11.399 46.729C11.284 46.996 11.385 47.534 11.515 47.948C11.564 48.103 11.56 48.315 11.552 48.566C11.544 48.821 11.533 49.127 11.571 49.475C11.588 49.632 11.6 49.788 11.606 49.946C11.601 50.86 11.45 51.356 11.34 51.758C11.299 51.896 11.258 52.022 11.215 52.145C11.079 52.538 10.862 52.984 10.618 53.398C10.326 53.895 9.996 54.35 9.751 54.702C9.528 54.906 9.299 55.099 9.064 55.281C8.939 55.425 8.467 55.667 8.302 55.762C7.469 56.042 6.662 56.183 5.814 56.226C5.214 56.257 4.59 55.999 4.204 55.535C3.813 55.071 3.723 54.471 3.845 53.91C3.968 53.346 4.233 52.836 4.477 52.429C4.728 52.023 4.969 51.763 5.253 51.681C5.654 51.568 6.069 51.39 6.4 51.19L5.753 51.598C5.885 51.447 6.01 51.292 6.125 51.137C6.602 50.513 6.899 49.844 6.945 49.533C6.951 49.504 6.955 49.478 6.958 49.455C7.002 49.034 7.037 48.339 7.074 47.732C7.079 47.656 7.083 47.586 7.088 47.511C6.96 46.898 6.838 46.286 6.796 45.855C6.761 45.501 6.838 45.241 6.904 45.017C6.949 44.865 6.989 44.73 6.983 44.591C6.98 44.517 6.971 44.418 6.961 44.296C6.918 43.799 6.843 42.956 6.973 42.186C7.031 41.844 7.147 41.447 7.256 41.065C7.413 40.521 7.556 40.014 7.502 39.759C7.408 39.314 7.463 38.803 7.509 38.348C7.546 37.983 7.577 37.655 7.522 37.441C7.512 37.401 7.499 37.364 7.482 37.331C7.355 37.072 7.392 36.848 7.447 36.509C7.486 36.275 7.533 35.987 7.543 35.599C7.556 35.152 7.627 34.832 7.689 34.562C7.775 34.182 7.842 33.896 7.701 33.476C7.545 33.009 7.445 32.517 7.488 32.13C7.508 31.952 7.501 31.753 7.495 31.542C7.486 31.266 7.478 30.971 7.531 30.707C7.574 30.486 7.686 30.308 7.786 30.146C7.817 30.095 7.846 30.048 7.872 30.002C7.872 29.829 7.87 29.652 7.868 29.48C7.85 29.451 7.83 29.422 7.81 29.39C7.707 29.231 7.582 29.045 7.521 28.804C7.483 28.657 7.47 28.515 7.473 28.375C7.478 28.163 7.519 27.96 7.561 27.753C7.617 27.482 7.674 27.205 7.661 26.881C7.651 26.659 7.61 26.414 7.569 26.162C7.509 25.793 7.451 25.425 7.5 25.176C7.518 25.083 7.59 25.001 7.662 24.922C7.662 24.922 7.663 24.921 7.663 24.921C7.668 24.916 7.673 24.91 7.678 24.905C7.64 24.291 7.599 23.671 7.558 23.053C7.542 22.999 7.526 22.945 7.51 22.891C7.434 22.629 7.36 22.367 7.248 22.2C7.127 22.013 7.071 21.558 7.014 21.079C6.976 20.762 6.939 20.436 6.881 20.17C6.847 20.014 6.927 19.868 7.01 19.723C7.086 19.588 7.166 19.443 7.157 19.287C7.152 19.209 7.128 19.119 7.101 19.026C7.077 18.944 7.052 18.857 7.039 18.768C7.027 18.684 7.078 18.501 7.143 18.268C7.184 18.12 7.229 17.965 7.27 17.787C7.256 17.323 7.247 16.857 7.246 16.386C7.191 16.282 7.116 16.191 7.017 16.116C6.945 16.06 6.859 16.01 6.77 15.959C6.65 15.888 6.525 15.82 6.429 15.725C6.355 15.65 6.33 15.57 6.369 15.522C6.386 15.5 6.418 15.484 6.446 15.47C6.479 15.453 6.508 15.438 6.509 15.416C6.51 15.401 6.49 15.382 6.466 15.36C6.427 15.324 6.377 15.277 6.382 15.216C6.399 14.977 6.446 14.714 6.501 14.427C6.523 14.311 6.547 14.188 6.572 14.066C6.586 14.033 6.604 13.916 6.603 13.819C6.603 13.642 6.705 13.368 6.804 13.066C6.873 12.855 6.94 12.641 6.972 12.454C7.004 12.27 6.968 12.075 6.932 11.883C6.889 11.655 6.846 11.43 6.923 11.248C6.939 11.211 7.028 11.167 7.139 11.111C7.218 11.071 7.309 11.024 7.392 10.973C7.4 10.735 7.411 10.493 7.424 10.252C7.412 10.243 7.4 10.234 7.388 10.225C7.388 10.224 7.388 10.224 7.387 10.224C7.114 10.019 6.74 9.739 6.976 9.364C7.036 9.267 7.144 9.209 7.241 9.156C7.337 9.104 7.422 9.058 7.441 8.987C7.463 8.907 7.407 8.81 7.346 8.706C7.26 8.559 7.165 8.394 7.259 8.233C7.266 8.222 7.273 8.21 7.28 8.198C7.348 8.081 7.448 7.907 7.645 7.736C7.705 7.218 7.773 6.7 7.846 6.182C7.966 5.319 8.1 4.454 8.23 3.585C8.294 3.164 8.561 2.764 8.986 2.463C9.412 2.168 9.959 1.998 10.524 2C11.09 1.997 11.636 2.169 12.061 2.468C12.485 2.773 12.75 3.18 12.81 3.607C12.907 4.304 13.002 5.001 13.088 5.697C13.099 5.734 13.11 5.77 13.12 5.807C13.197 6.081 13.353 6.332 13.509 6.587C13.545 6.646 13.581 6.704 13.616 6.763Z" fill="#EA3A4B" style="fill: rgb(255, 77, 94)" />
  <path d="M3.331 29.948C3.363 29.708 3.51 29.776 3.599 29.809C3.601 29.81 3.602 29.81 3.604 29.811C3.625 29.819 3.643 29.818 3.664 29.817C3.715 29.813 3.78 29.81 3.962 29.913C4.003 29.896 4.044 29.881 4.086 29.869C4.54 29.733 5.092 29.72 5.708 29.683C5.714 29.679 5.72 29.674 5.726 29.67C5.845 29.587 5.993 29.481 6.133 29.504C6.312 29.534 6.448 29.575 6.563 29.612C7.075 29.552 7.594 29.448 8.072 29.249C8.222 29.187 8.367 29.115 8.509 29.032C8.619 28.967 8.729 28.897 8.835 28.823L8.76 28.869C8.778 28.855 8.796 28.841 8.814 28.827C8.864 28.734 8.903 28.637 8.941 28.546C8.993 28.418 9.039 28.306 9.098 28.241C9.236 28.088 9.472 28.04 9.647 28.006C9.676 28 9.703 27.995 9.727 27.989C9.822 27.892 9.916 27.794 10.009 27.695C10.027 27.707 10.045 27.719 10.064 27.732C10.295 27.891 10.41 27.816 10.591 27.699C10.67 27.648 10.762 27.589 10.88 27.538C10.957 27.505 11.046 27.57 11.119 27.624C11.141 27.639 11.161 27.654 11.179 27.665C11.24 27.701 11.234 27.625 11.227 27.534C11.218 27.417 11.208 27.276 11.339 27.329C11.758 27.5 11.732 27.228 11.713 27.022C11.707 26.962 11.702 26.907 11.709 26.871C11.731 26.754 11.873 26.771 12.009 26.831C12.116 26.878 12.183 26.727 12.209 26.57C12.219 26.511 12.264 26.483 12.316 26.45C12.37 26.417 12.434 26.378 12.475 26.293C12.582 26.079 12.64 25.971 12.689 25.884C12.703 25.859 12.715 25.836 12.728 25.813C12.768 25.739 12.826 25.664 12.886 25.587C12.942 25.514 13.001 25.439 13.042 25.365L13.019 25.379C13.029 25.361 13.038 25.342 13.047 25.323C13.269 25.26 13.574 25.169 13.873 25.105C14.028 25.072 14.255 25.213 14.489 25.51C14.724 25.806 14.948 26.23 15.136 26.687C15.323 27.144 15.464 27.601 15.552 27.962C15.639 28.322 15.668 28.553 15.62 28.621C15.521 28.758 15.441 28.895 15.287 29.062C15.28 29.07 15.272 29.077 15.265 29.085C15.26 29.085 15.249 29.096 15.245 29.097C15.06 29.289 14.863 29.462 14.642 29.594C14.481 29.689 14.315 29.775 14.143 29.853C14.126 29.861 14.108 29.868 14.091 29.876C14.018 30.061 13.941 30.236 13.867 30.327C13.806 30.402 13.716 30.381 13.639 30.362C13.586 30.35 13.539 30.339 13.511 30.361C13.497 30.373 13.479 30.393 13.457 30.417C13.368 30.514 13.218 30.678 12.989 30.678C12.888 30.678 12.748 30.642 12.615 30.608C12.424 30.559 12.245 30.514 12.211 30.582C12.152 30.702 12.01 30.719 11.884 30.734C11.764 30.749 11.66 30.762 11.657 30.86C11.655 30.978 11.587 30.974 11.485 30.967C11.416 30.962 11.329 30.958 11.239 30.991C11.133 31.03 11.031 31.013 10.944 31C10.823 30.98 10.73 30.966 10.705 31.118C10.678 31.286 10.623 31.418 10.523 31.436C10.505 31.44 10.489 31.446 10.473 31.454C10.457 31.458 10.418 31.498 10.4 31.5C10.374 31.513 10.348 31.531 10.322 31.549C10.266 31.59 10.205 31.632 10.125 31.627C10.058 31.622 9.97 31.563 9.892 31.51C9.868 31.494 9.845 31.478 9.823 31.465C9.786 31.488 9.748 31.512 9.712 31.537C9.713 31.554 9.715 31.573 9.717 31.592C9.728 31.688 9.741 31.806 9.716 31.884C9.676 32.006 9.576 32.002 9.47 31.998C9.387 31.994 9.301 31.99 9.237 32.046C9.194 32.084 9.157 32.151 9.12 32.216C9.065 32.314 9.01 32.41 8.934 32.411C8.906 32.412 8.858 32.37 8.81 32.328C8.81 32.328 8.81 32.327 8.809 32.327C8.806 32.324 8.803 32.321 8.8 32.319C8.681 32.437 8.563 32.56 8.444 32.685C8.439 32.705 8.433 32.726 8.428 32.746C8.401 32.843 8.375 32.938 8.382 33.049C8.391 33.169 8.312 33.283 8.226 33.403C8.17 33.481 8.11 33.562 8.072 33.65C8.049 33.701 7.985 33.663 7.919 33.625C7.857 33.588 7.794 33.551 7.761 33.584C7.745 33.6 7.735 33.634 7.724 33.67C7.714 33.701 7.704 33.735 7.688 33.76C7.673 33.783 7.612 33.775 7.533 33.764C7.485 33.757 7.43 33.75 7.375 33.748C7.273 33.837 7.169 33.924 7.062 34.009C7.058 34.069 7.064 34.144 7.082 34.235C7.095 34.3 7.115 34.376 7.135 34.454C7.162 34.56 7.189 34.67 7.202 34.761C7.211 34.833 7.201 34.867 7.176 34.846C7.164 34.837 7.149 34.815 7.136 34.796C7.121 34.774 7.107 34.754 7.102 34.757C7.098 34.759 7.101 34.778 7.104 34.801C7.11 34.838 7.117 34.886 7.101 34.894C7.041 34.925 6.965 34.94 6.89 34.954C6.806 34.969 6.724 34.984 6.668 35.02C6.605 35.06 6.482 35.032 6.36 35.003C6.275 34.982 6.19 34.961 6.124 34.962C6.059 34.964 6.011 35.02 5.962 35.076C5.904 35.142 5.847 35.205 5.769 35.165C5.753 35.157 5.716 35.09 5.67 35.006C5.638 34.946 5.601 34.878 5.564 34.816C5.49 34.838 5.414 34.856 5.338 34.872C5.338 34.882 5.338 34.893 5.338 34.904C5.338 34.904 5.338 34.905 5.338 34.905C5.341 35.152 5.334 35.492 5.161 35.335C5.117 35.295 5.075 35.211 5.037 35.136C5.001 35.061 4.968 34.995 4.942 34.985C4.913 34.975 4.894 35.03 4.873 35.09C4.843 35.175 4.808 35.27 4.738 35.205C4.733 35.2 4.728 35.195 4.723 35.19C4.672 35.144 4.598 35.075 4.509 34.922C4.335 34.911 4.159 34.889 3.984 34.858C3.691 34.806 3.4 34.728 3.117 34.636C2.978 34.591 2.839 34.367 2.745 34.005C2.649 33.642 2.605 33.173 2.605 32.688C2.606 32.203 2.646 31.735 2.699 31.37C2.752 31.004 2.814 30.775 2.886 30.717C3.003 30.624 3.115 30.527 3.224 30.433C3.229 30.422 3.234 30.411 3.239 30.401C3.277 30.328 3.299 30.186 3.318 30.045C3.323 30.012 3.327 29.98 3.331 29.948Z" fill="#EA3A4B" style="fill: rgb(255, 77, 94)" />
  <path d="M3.116 11.353C3.22 11.121 3.42 11.216 3.53 11.269C3.532 11.27 3.534 11.27 3.536 11.271C3.562 11.284 3.587 11.287 3.616 11.29C3.685 11.299 3.779 11.311 3.973 11.459C4.03 11.454 4.087 11.451 4.144 11.451C4.757 11.454 5.37 11.651 5.982 11.888C5.99 11.887 5.998 11.886 6.006 11.885C6.161 11.863 6.352 11.835 6.471 11.921C6.623 12.031 6.725 12.132 6.809 12.22C7.295 12.412 7.78 12.587 8.266 12.666C8.419 12.691 8.571 12.706 8.724 12.71C8.865 12.713 9.006 12.71 9.148 12.7C9.231 12.651 9.311 12.594 9.385 12.54C9.489 12.465 9.582 12.398 9.658 12.378C9.84 12.329 10.042 12.421 10.192 12.491C10.217 12.502 10.24 12.512 10.261 12.522C10.383 12.494 10.506 12.465 10.628 12.435C10.635 12.454 10.643 12.475 10.65 12.496C10.744 12.757 10.87 12.758 11.07 12.762C11.157 12.763 11.258 12.765 11.375 12.789C11.451 12.804 11.486 12.908 11.514 12.993C11.523 13.018 11.53 13.041 11.539 13.06C11.566 13.124 11.602 13.057 11.643 12.978C11.698 12.876 11.763 12.752 11.836 12.87C12.069 13.245 12.191 13.004 12.284 12.823C12.312 12.769 12.336 12.721 12.36 12.695C12.439 12.61 12.54 12.704 12.612 12.829C12.67 12.928 12.801 12.84 12.904 12.725C12.943 12.681 12.992 12.683 13.049 12.685C13.109 12.687 13.178 12.69 13.255 12.644C13.45 12.525 13.553 12.469 13.636 12.424C13.66 12.411 13.682 12.4 13.704 12.387C13.774 12.349 13.86 12.319 13.947 12.289C14.05 12.253 14.156 12.217 14.238 12.164C14.436 12.24 14.633 12.33 14.83 12.421C14.931 12.469 15.013 12.697 15.057 13.067C15.101 13.438 15.103 13.916 15.063 14.408C15.023 14.901 14.944 15.373 14.845 15.731C14.745 16.09 14.632 16.304 14.53 16.335C14.323 16.398 14.118 16.462 13.913 16.51C13.664 16.569 13.417 16.605 13.173 16.59C13.003 16.58 12.833 16.558 12.663 16.527C12.646 16.524 12.628 16.52 12.611 16.517C12.46 16.63 12.311 16.733 12.209 16.767C12.124 16.795 12.066 16.727 12.017 16.669C11.983 16.629 11.953 16.594 11.921 16.598C11.903 16.6 11.88 16.606 11.851 16.613C11.733 16.645 11.534 16.698 11.359 16.571C11.282 16.515 11.194 16.407 11.109 16.304C10.988 16.157 10.875 16.02 10.813 16.058C10.706 16.125 10.587 16.061 10.483 16.003C10.383 15.948 10.295 15.901 10.242 15.981C10.178 16.077 10.128 16.035 10.053 15.973C10.001 15.931 9.938 15.878 9.85 15.855C9.748 15.828 9.677 15.757 9.617 15.697C9.533 15.611 9.469 15.548 9.368 15.659C9.256 15.782 9.141 15.86 9.053 15.817C9.013 15.798 8.966 15.801 8.918 15.805C8.854 15.809 8.786 15.814 8.726 15.767C8.676 15.728 8.637 15.631 8.602 15.545C8.591 15.519 8.58 15.493 8.57 15.471C8.53 15.471 8.489 15.472 8.449 15.474C8.442 15.489 8.434 15.506 8.427 15.523C8.389 15.611 8.342 15.719 8.286 15.771C8.197 15.855 8.123 15.8 8.043 15.742C7.982 15.696 7.918 15.648 7.843 15.664C7.792 15.674 7.733 15.712 7.675 15.75C7.589 15.806 7.503 15.861 7.445 15.824C7.424 15.81 7.406 15.749 7.388 15.689C7.388 15.689 7.388 15.689 7.388 15.688C7.387 15.684 7.386 15.68 7.385 15.676C7.241 15.72 7.098 15.768 6.954 15.819C6.942 15.834 6.929 15.85 6.917 15.864C6.855 15.937 6.795 16.007 6.756 16.108C6.713 16.217 6.608 16.28 6.497 16.346C6.425 16.389 6.35 16.434 6.288 16.494C6.253 16.529 6.22 16.466 6.186 16.402C6.154 16.342 6.122 16.28 6.085 16.295C6.067 16.303 6.047 16.328 6.026 16.355C6.007 16.379 5.987 16.405 5.967 16.42C5.948 16.435 5.906 16.401 5.852 16.357C5.819 16.33 5.781 16.3 5.741 16.275C5.635 16.312 5.529 16.349 5.423 16.382C5.401 16.436 5.381 16.507 5.366 16.597C5.354 16.662 5.344 16.74 5.334 16.819C5.32 16.927 5.306 17.039 5.287 17.128C5.272 17.198 5.255 17.225 5.244 17.196C5.239 17.183 5.235 17.157 5.231 17.134C5.227 17.108 5.224 17.084 5.219 17.085C5.216 17.086 5.212 17.104 5.208 17.127C5.201 17.163 5.192 17.209 5.178 17.211C5.128 17.217 5.071 17.201 5.016 17.186C4.954 17.17 4.893 17.153 4.845 17.167C4.791 17.182 4.714 17.113 4.637 17.043C4.583 16.995 4.53 16.946 4.483 16.927C4.438 16.907 4.39 16.945 4.344 16.982C4.289 17.027 4.236 17.07 4.191 17.009C4.182 16.997 4.171 16.922 4.158 16.828C4.148 16.761 4.137 16.685 4.124 16.615C4.066 16.615 4.009 16.611 3.952 16.605C3.95 16.616 3.948 16.626 3.945 16.637C3.945 16.637 3.945 16.637 3.945 16.637C3.897 16.876 3.832 17.202 3.742 17.007C3.719 16.958 3.705 16.866 3.692 16.784C3.68 16.703 3.668 16.63 3.652 16.615C3.633 16.598 3.61 16.647 3.585 16.701C3.551 16.777 3.512 16.862 3.474 16.783C3.471 16.777 3.468 16.771 3.465 16.765C3.437 16.709 3.396 16.626 3.355 16.459C3.233 16.414 3.111 16.362 2.988 16.305C2.784 16.209 2.58 16.101 2.375 15.992C2.276 15.939 2.18 15.712 2.11 15.348C2.04 14.983 2 14.514 2 14.03C2 13.545 2.04 13.076 2.11 12.712C2.181 12.348 2.277 12.12 2.377 12.067C2.54 11.981 2.703 11.895 2.867 11.816C2.875 11.806 2.884 11.796 2.892 11.787C2.956 11.719 3.015 11.583 3.075 11.447C3.088 11.415 3.102 11.384 3.116 11.353Z" fill="#EA3A4B" style="fill: rgb(255, 77, 94)" />
  <path d="M20.18 13.657C19.938 12.902 20.248 11.496 20.479 10.782C20.483 10.769 20.486 10.755 20.49 10.742C20.543 10.57 20.584 10.407 20.635 10.218C20.758 9.772 20.928 9.146 21.49 8.037C21.6 7.697 21.715 7.368 21.834 7.047C21.982 6.648 22.133 6.264 22.277 5.899C22.492 5.351 22.807 4.633 23.214 4.005C23.756 3.143 24.366 2.821 24.732 2.63C25.116 2.443 25.375 2.371 25.598 2.311C26.034 2.201 26.335 2.166 26.615 2.136C27.167 2.08 27.621 2.071 28.064 2.067C28.946 2.062 29.773 2.094 30.594 2.134C31.563 2.184 32.536 2.24 33.511 2.301C33.555 2.299 33.6 2.297 33.645 2.295C34.523 2.253 35.613 2.204 36.301 2.296C37.175 2.412 37.772 2.524 38.26 2.622C38.601 2.646 38.942 2.671 39.285 2.697C41.77 2.896 44.2 3.049 46.838 3.446C47.03 3.478 47.228 3.513 47.407 3.548C47.634 3.592 47.886 3.634 48.215 3.714C48.493 3.778 48.745 3.914 48.901 4.028C49.053 4.137 49.171 4.258 49.251 4.352C49.398 4.525 49.478 4.671 49.531 4.772C49.64 4.989 49.678 5.116 49.716 5.236C49.784 5.467 49.814 5.636 49.842 5.793C49.894 6.108 49.92 6.37 49.944 6.632C50.02 7.53 50.042 8.351 50.065 9.181C50.126 9.663 50.194 10.117 50.253 10.539C50.337 11.13 50.405 11.657 50.42 12.091C50.424 12.208 50.425 12.328 50.425 12.451C50.426 13.475 50.203 14.647 49.963 15.471C49.92 15.623 49.879 15.765 49.84 15.893C49.77 16.313 49.694 16.712 49.623 17.096C49.567 17.399 49.508 17.701 49.447 18.003C49.413 18.045 49.378 18.086 49.342 18.127C48.887 18.645 48.717 19.35 48.292 20.544C48.202 20.788 48.101 21.052 47.952 21.369C47.874 21.53 47.791 21.7 47.644 21.93C47.565 22.049 47.485 22.176 47.294 22.38C47.195 22.479 47.074 22.61 46.794 22.775C46.54 22.928 45.885 23.199 45.139 22.924C45.179 22.939 45.272 22.961 45.288 22.961C45.324 22.957 45.1 22.902 45.003 22.854C44.886 22.802 44.792 22.743 44.708 22.69C44.659 22.659 44.609 22.63 44.563 22.605C44.398 22.523 44.211 22.595 43.993 22.68C43.861 22.731 43.717 22.788 43.553 22.818C43.371 22.852 43.166 22.852 42.933 22.772C41.535 22.294 40.898 22.559 40.417 22.758C40.276 22.817 40.148 22.869 40.018 22.897C39.596 22.985 39.005 22.86 38.559 22.701C38.207 22.575 37.487 22.658 36.936 22.776C36.812 22.802 36.662 22.809 36.494 22.807C36.376 22.806 36.251 22.8 36.118 22.795C35.775 22.78 35.379 22.761 34.953 22.796C33.875 22.885 33.34 22.927 32.897 22.965C32.772 22.976 32.654 22.986 32.538 22.997C32.411 23.008 32.28 23.019 32.136 23.028C31.858 23.047 31.55 23.064 31.238 23.081C30.676 23.113 30.106 23.147 29.669 23.203C28.546 23.102 27.417 22.99 26.29 22.883C25.71 22.827 25.157 22.561 24.752 22.129C24.346 21.697 24.121 21.139 24.128 20.562C24.135 19.986 24.373 19.432 24.793 19.011C25.212 18.591 25.779 18.34 26.367 18.304C27.55 18.232 28.735 18.165 29.922 18.124C30.721 18.096 31.524 18.08 32.332 18.085C32.985 18.089 33.653 18.111 34.299 18.149C35.118 18.198 35.896 18.251 36.697 18.303C36.883 18.315 37.072 18.328 37.261 18.341C37.361 18.347 37.466 18.355 37.567 18.361C38.408 18.254 39.251 18.157 39.843 18.133C40.333 18.113 40.686 18.202 40.988 18.279C41.197 18.331 41.381 18.377 41.57 18.378C41.671 18.378 41.81 18.375 41.976 18.371C42.416 18.36 43.054 18.343 43.74 18.384C44.118 18.407 44.505 18.446 44.896 18.516C45.062 18.545 45.236 18.582 45.442 18.629C45.666 18.695 45.828 18.669 46.592 18.954C46.127 18.782 45.6 18.797 45.248 18.896C44.919 18.985 44.706 19.117 44.582 19.204C44.32 19.395 44.264 19.492 44.209 19.564C44.123 19.698 44.142 19.719 44.158 19.726C44.266 19.712 44.479 19.428 44.613 19.214C44.754 18.989 44.854 18.773 44.881 18.614C44.974 18.061 45.223 17.443 45.433 16.882C45.535 16.613 45.627 16.362 45.69 16.135C45.755 15.905 45.791 15.712 45.777 15.564C45.743 15.209 45.851 14.952 45.994 14.577C46.093 14.317 46.208 14.003 46.281 13.555C46.364 13.039 46.46 12.661 46.539 12.332C46.539 12.332 46.539 12.331 46.539 12.331C46.65 11.836 46.733 11.462 46.609 10.904C46.473 10.283 46.382 9.645 46.425 9.143C46.445 8.916 46.437 8.653 46.425 8.388C46.41 8.033 46.389 7.664 46.422 7.337C46.449 7.066 46.541 6.844 46.619 6.654C46.644 6.597 46.666 6.537 46.685 6.487C46.671 6.394 46.656 6.311 46.641 6.248C46.632 6.195 46.592 6.123 46.654 6.26C46.673 6.319 46.658 6.405 46.901 6.651C46.989 6.738 47.192 6.884 47.452 6.953C47.312 7.017 47.102 7.09 46.81 7.101C46.803 7.101 46.796 7.102 46.789 7.102C46.326 7.125 45.953 7.019 45.523 6.911C45.19 6.828 44.836 6.747 44.419 6.741C44.135 6.737 43.809 6.766 43.483 6.797C43.002 6.844 42.525 6.896 42.193 6.846C42.071 6.827 41.962 6.754 41.859 6.682C41.858 6.681 41.858 6.681 41.857 6.681C41.85 6.676 41.843 6.671 41.836 6.666C41.026 6.702 40.213 6.754 39.397 6.816C39.359 6.825 39.322 6.834 39.284 6.844C39.251 6.852 39.217 6.86 39.183 6.869C38.838 6.955 38.502 7.039 38.283 7.159C38.045 7.288 37.447 7.367 36.816 7.452C36.402 7.507 35.974 7.565 35.625 7.641C35.421 7.685 35.226 7.615 35.025 7.543C34.837 7.476 34.645 7.407 34.435 7.428C34.331 7.438 34.217 7.47 34.097 7.504C33.99 7.533 33.879 7.565 33.761 7.585C33.651 7.604 33.407 7.568 33.093 7.522C32.9 7.494 32.678 7.463 32.447 7.437C31.856 7.49 31.267 7.541 30.675 7.589C30.655 7.591 30.635 7.592 30.615 7.594C30.488 7.659 30.387 7.744 30.3 7.851C30.24 7.928 30.19 8.02 30.139 8.113C30.071 8.241 29.995 8.373 29.896 8.479C29.82 8.562 29.723 8.597 29.66 8.564C29.631 8.549 29.608 8.52 29.587 8.494C29.564 8.464 29.541 8.437 29.515 8.439C29.497 8.44 29.478 8.462 29.456 8.489C29.419 8.532 29.374 8.588 29.3 8.592C29.027 8.608 28.72 8.602 28.432 8.6C28.113 8.597 27.819 8.601 27.632 8.638C27.527 8.658 27.404 8.659 27.344 8.642C27.316 8.633 27.304 8.62 27.352 8.587C27.405 8.547 27.506 8.515 27.823 8.305C28.032 8.159 28.407 7.879 28.725 7.331C28.599 7.461 28.55 7.48 28.479 7.587C28.395 7.711 28.358 7.914 28.324 8.125C28.321 8.145 28.317 8.165 28.314 8.186C28.253 8.481 28.19 8.751 28.047 8.944C28.016 8.987 27.912 9.014 27.782 9.05C27.689 9.075 27.584 9.103 27.482 9.143C27.372 9.438 27.265 9.726 27.16 10.009C27.168 10.023 27.176 10.037 27.184 10.051C27.185 10.051 27.185 10.052 27.185 10.052C27.369 10.377 27.628 10.8 27.287 11.159C27.2 11.251 27.078 11.29 26.969 11.326C26.861 11.362 26.765 11.395 26.726 11.47C26.683 11.556 26.712 11.678 26.745 11.808C26.792 11.991 26.849 12.189 26.723 12.349C26.714 12.36 26.705 12.371 26.695 12.384C26.605 12.501 26.475 12.674 26.252 12.838C26.134 13.311 26.038 13.784 25.968 14.263C25.953 14.383 25.938 14.501 25.923 14.618C25.774 15.784 25.615 16.946 25.465 18.109C25.392 18.675 25.118 19.212 24.688 19.608C24.258 20.004 23.711 20.225 23.145 20.223C22.58 20.222 22.034 19.987 21.613 19.571C21.194 19.156 20.937 18.596 20.887 18.017C20.805 17.071 20.73 16.128 20.666 15.183C20.656 15.132 20.646 15.083 20.637 15.034C20.576 14.697 20.449 14.388 20.316 14.072C20.302 14.031 20.288 13.99 20.274 13.95C20.242 13.852 20.21 13.756 20.18 13.657Z" fill="#EA3A4B" style="fill: rgb(255, 77, 94)" />
  <path d="M21.787 10.513C22.065 10.319 22.597 10.398 22.893 10.442C22.898 10.443 22.903 10.443 22.909 10.444C22.978 10.454 23.044 10.457 23.122 10.46C23.304 10.467 23.556 10.476 24.076 10.6C24.225 10.595 24.38 10.593 24.529 10.593C26.164 10.594 27.798 10.756 29.433 10.95C29.453 10.949 29.474 10.948 29.495 10.947C29.907 10.927 30.412 10.903 30.734 10.974C31.138 11.065 31.414 11.148 31.641 11.22C32.013 11.265 32.384 11.309 32.758 11.35C33.682 11.451 34.61 11.535 35.535 11.577C35.941 11.596 36.349 11.606 36.755 11.607C37.13 11.607 37.505 11.602 37.879 11.591C38.098 11.549 38.305 11.499 38.498 11.453C38.768 11.389 39.009 11.331 39.207 11.313C39.686 11.268 40.229 11.34 40.633 11.394C40.699 11.403 40.761 11.412 40.818 11.419C41.138 11.393 41.458 11.365 41.779 11.336C41.801 11.352 41.822 11.369 41.844 11.386C42.116 11.601 42.452 11.599 42.982 11.596C43.211 11.594 43.479 11.593 43.794 11.608C43.997 11.619 44.099 11.704 44.184 11.773C44.21 11.794 44.233 11.813 44.257 11.828C44.339 11.881 44.425 11.824 44.526 11.757C44.655 11.669 44.817 11.564 45.023 11.659C45.688 11.962 45.977 11.757 46.201 11.602C46.266 11.556 46.325 11.515 46.385 11.492C46.578 11.418 46.857 11.491 47.068 11.592C47.235 11.672 47.569 11.592 47.82 11.491C47.917 11.453 48.045 11.452 48.197 11.451C48.358 11.45 48.535 11.448 48.732 11.405C48.782 11.394 48.829 11.384 48.873 11.374C49.278 11.285 49.502 11.239 49.695 11.2C49.754 11.188 49.807 11.177 49.865 11.165C50.042 11.129 50.255 11.098 50.479 11.067C50.742 11.029 51.009 10.991 51.209 10.94C51.473 10.963 51.729 10.988 51.986 11.012C52.112 11.025 52.238 11.037 52.352 11.048C52.46 11.06 52.591 11.065 52.56 11.083C52.555 11.087 52.548 11.093 52.576 11.094C52.837 11.101 53.137 11.232 53.355 11.478C53.601 11.75 53.762 12.129 53.819 12.536C53.876 12.944 53.822 13.352 53.684 13.681C53.554 13.979 53.39 14.185 53.17 14.283C53.146 14.294 53.094 14.308 53.043 14.319C52.179 14.47 51.788 14.505 51.192 14.572C50.516 14.643 49.845 14.689 49.17 14.691C49.076 14.691 48.98 14.691 48.881 14.691C48.509 14.688 48.136 14.68 47.759 14.666C47.712 14.664 47.664 14.662 47.616 14.661C47.218 14.762 46.83 14.855 46.549 14.887C46.323 14.915 46.153 14.861 46.011 14.814C45.913 14.782 45.827 14.754 45.738 14.759C45.691 14.761 45.624 14.767 45.548 14.775C45.231 14.805 44.689 14.857 44.197 14.758C43.98 14.714 43.723 14.627 43.483 14.544C43.135 14.426 42.814 14.315 42.649 14.349C42.364 14.408 42.034 14.357 41.745 14.313C41.466 14.27 41.226 14.232 41.087 14.301C40.922 14.382 40.783 14.349 40.574 14.299C40.428 14.264 40.252 14.222 40.01 14.205C39.731 14.185 39.535 14.127 39.367 14.078C39.132 14.009 38.954 13.957 38.69 14.052C38.396 14.157 38.088 14.224 37.847 14.19C37.737 14.175 37.611 14.178 37.48 14.182C37.306 14.187 37.124 14.192 36.957 14.154C36.819 14.122 36.706 14.042 36.606 13.971C36.575 13.949 36.545 13.928 36.516 13.909C36.406 13.91 36.297 13.912 36.187 13.914C36.169 13.927 36.151 13.941 36.132 13.955C36.034 14.029 35.914 14.119 35.765 14.164C35.53 14.235 35.324 14.19 35.107 14.142C34.938 14.105 34.761 14.066 34.559 14.08C34.422 14.089 34.265 14.121 34.109 14.154C33.879 14.201 33.65 14.248 33.492 14.218C33.433 14.207 33.382 14.156 33.332 14.106C33.331 14.106 33.331 14.106 33.331 14.105C33.328 14.102 33.324 14.099 33.321 14.095C33.131 14.114 32.941 14.133 32.754 14.153C32.555 14.174 32.361 14.196 32.163 14.219C32.13 14.231 32.096 14.244 32.062 14.257C31.898 14.318 31.742 14.377 31.636 14.461C31.522 14.553 31.243 14.605 30.944 14.661C30.75 14.698 30.547 14.735 30.383 14.786C30.287 14.815 30.196 14.764 30.102 14.71C30.014 14.66 29.924 14.609 29.827 14.622C29.778 14.628 29.724 14.649 29.667 14.672C29.617 14.692 29.564 14.714 29.509 14.727C29.457 14.739 29.346 14.71 29.197 14.675C29.106 14.652 29.003 14.627 28.896 14.607C28.609 14.638 28.323 14.669 28.038 14.698C27.979 14.743 27.927 14.802 27.886 14.877C27.856 14.931 27.831 14.996 27.805 15.062C27.77 15.152 27.734 15.246 27.684 15.32C27.645 15.378 27.599 15.401 27.569 15.377C27.555 15.366 27.544 15.344 27.534 15.325C27.523 15.303 27.512 15.284 27.5 15.284C27.49 15.285 27.481 15.3 27.469 15.319C27.451 15.349 27.427 15.388 27.39 15.389C27.253 15.394 27.102 15.382 26.949 15.369C26.78 15.356 26.617 15.342 26.485 15.354C26.34 15.367 26.128 15.309 25.922 15.251C25.775 15.211 25.628 15.171 25.504 15.155C25.38 15.139 25.252 15.17 25.13 15.201C24.978 15.239 24.839 15.275 24.715 15.224C24.691 15.214 24.66 15.151 24.622 15.073C24.594 15.018 24.563 14.954 24.528 14.896C24.375 14.896 24.217 14.893 24.064 14.888C24.059 14.897 24.053 14.905 24.047 14.914C24.047 14.914 24.047 14.915 24.047 14.915C23.918 15.114 23.745 15.386 23.501 15.223C23.441 15.182 23.4 15.106 23.364 15.037C23.33 14.97 23.299 14.91 23.254 14.897C23.202 14.883 23.143 14.924 23.076 14.969C22.981 15.032 22.882 15.103 22.774 15.037C22.767 15.032 22.76 15.027 22.752 15.023C22.675 14.976 22.567 14.907 22.453 14.767C22.123 14.73 21.793 14.687 21.463 14.639C21.28 14.612 21.087 14.584 20.905 14.555C20.538 14.499 20.177 14.439 19.814 14.379C19.544 14.335 19.291 14.146 19.099 13.842C18.911 13.538 18.804 13.148 18.805 12.744C18.804 12.34 18.911 11.95 19.099 11.646C19.291 11.342 19.544 11.153 19.814 11.108C20.177 11.049 20.538 10.989 20.905 10.932C20.975 10.921 21.05 10.91 21.123 10.899C21.145 10.89 21.168 10.882 21.191 10.875C21.363 10.818 21.52 10.704 21.677 10.591C21.713 10.565 21.75 10.538 21.787 10.513Z" fill="#EA3A4B" style="fill: rgb(255, 77, 94)" />
  <path d="M39.97 6.861C40.161 6.982 40.078 7.205 40.031 7.329C40.031 7.332 40.03 7.334 40.029 7.336C40.018 7.365 40.015 7.392 40.011 7.425C40.003 7.504 39.991 7.607 39.863 7.824C39.866 7.887 39.867 7.952 39.865 8.015C39.859 8.285 39.828 8.555 39.78 8.824C39.696 9.419 39.531 9.841 39.355 10.276C39.355 10.285 39.355 10.294 39.354 10.304C39.349 10.491 39.341 10.714 39.249 10.844C39.133 11.004 39.032 11.11 38.945 11.195C38.702 11.724 38.47 12.242 38.316 12.773C38.267 12.939 38.227 13.105 38.196 13.276C38.167 13.43 38.144 13.588 38.126 13.744C38.151 13.843 38.184 13.938 38.215 14.026C38.258 14.15 38.296 14.261 38.299 14.346C38.306 14.553 38.193 14.764 38.109 14.921C38.095 14.946 38.082 14.97 38.071 14.993C38.071 15.131 38.074 15.267 38.077 15.405C38.06 15.411 38.042 15.417 38.023 15.423C37.791 15.497 37.767 15.634 37.729 15.854C37.713 15.948 37.694 16.06 37.654 16.186C37.628 16.267 37.536 16.294 37.461 16.316C37.439 16.323 37.419 16.329 37.402 16.335C37.343 16.359 37.392 16.406 37.451 16.46C37.526 16.53 37.617 16.615 37.508 16.683C37.442 16.724 37.395 16.762 37.363 16.799C37.364 16.805 37.357 16.82 37.358 16.825C37.214 16.983 37.35 17.109 37.457 17.209C37.496 17.245 37.531 17.278 37.548 17.308C37.603 17.405 37.506 17.504 37.389 17.569C37.296 17.621 37.343 17.775 37.419 17.901C37.448 17.947 37.436 18.004 37.424 18.065C37.41 18.132 37.395 18.205 37.418 18.297C37.478 18.525 37.504 18.647 37.526 18.743C37.531 18.772 37.536 18.798 37.542 18.824C37.56 18.906 37.568 19.005 37.574 19.108C37.583 19.23 37.589 19.356 37.613 19.46C37.524 19.646 37.419 19.853 37.29 20.082C37.29 20.092 37.275 20.117 37.275 20.127C37.247 20.173 37.217 20.223 37.184 20.277C37.088 20.437 36.824 20.559 36.492 20.526C36.158 20.497 35.793 20.323 35.451 20.096C35.108 19.868 34.8 19.613 34.552 19.432C34.306 19.247 34.145 19.155 34.136 19.091C34.132 19.069 34.13 19.044 34.129 19.015L34.116 19.052C34.104 18.915 34.093 18.75 34.093 18.568C34.093 18.304 34.111 18.026 34.171 17.757C34.213 17.57 34.264 17.382 34.323 17.196C34.329 17.177 34.336 17.158 34.342 17.138C34.278 16.958 34.223 16.776 34.215 16.658C34.208 16.558 34.276 16.503 34.334 16.454C34.373 16.421 34.409 16.39 34.412 16.354C34.414 16.334 34.413 16.307 34.413 16.273C34.412 16.249 34.412 16.222 34.413 16.191L34.404 16.234C34.403 16.096 34.416 15.915 34.529 15.761C34.589 15.679 34.694 15.593 34.794 15.507C34.938 15.386 35.071 15.276 35.05 15.201C35.015 15.071 35.09 14.948 35.156 14.835C35.22 14.729 35.275 14.638 35.218 14.567C35.151 14.484 35.195 14.432 35.26 14.356C35.304 14.305 35.36 14.238 35.395 14.142C35.436 14.032 35.508 13.961 35.569 13.901C35.654 13.816 35.719 13.755 35.646 13.627C35.565 13.487 35.522 13.349 35.574 13.256C35.597 13.213 35.603 13.161 35.609 13.107C35.617 13.034 35.626 12.958 35.676 12.897C35.717 12.847 35.804 12.815 35.881 12.786C35.905 12.777 35.928 12.769 35.949 12.76C35.956 12.715 35.963 12.67 35.969 12.625C35.957 12.616 35.945 12.605 35.932 12.595C35.866 12.542 35.786 12.476 35.753 12.407C35.7 12.298 35.76 12.222 35.822 12.141C35.871 12.078 35.922 12.014 35.923 11.928C35.924 11.87 35.903 11.801 35.882 11.732C35.852 11.628 35.821 11.528 35.862 11.469C35.877 11.447 35.931 11.434 35.983 11.422C35.984 11.422 35.984 11.422 35.984 11.422C35.988 11.421 35.991 11.42 35.995 11.42C35.984 11.257 35.969 11.093 35.952 10.928C35.941 10.913 35.931 10.897 35.921 10.881C35.871 10.805 35.823 10.732 35.746 10.676C35.663 10.616 35.629 10.496 35.592 10.368C35.568 10.286 35.543 10.198 35.502 10.127C35.478 10.085 35.535 10.057 35.593 10.027C35.648 10 35.703 9.972 35.696 9.932C35.692 9.913 35.674 9.888 35.655 9.863C35.638 9.84 35.619 9.817 35.609 9.794C35.6 9.772 35.634 9.733 35.677 9.68C35.704 9.648 35.734 9.611 35.759 9.574C35.741 9.458 35.723 9.348 35.706 9.242C35.663 9.215 35.607 9.19 35.533 9.168C35.48 9.152 35.416 9.137 35.351 9.121C35.263 9.1 35.171 9.08 35.099 9.056C35.042 9.037 35.021 9.02 35.046 9.012C35.057 9.009 35.079 9.007 35.098 9.005C35.12 9.004 35.14 9.002 35.14 8.998C35.14 8.995 35.124 8.991 35.106 8.985C35.077 8.977 35.038 8.966 35.038 8.955C35.037 8.911 35.052 8.868 35.067 8.827C35.084 8.781 35.098 8.741 35.087 8.715C35.087 8.713 35.086 8.711 35.086 8.708C35.086 8.647 35.141 8.57 35.195 8.49C35.237 8.429 35.278 8.371 35.296 8.318C35.313 8.267 35.282 8.213 35.252 8.161C35.217 8.097 35.182 8.037 35.234 7.988C35.244 7.978 35.307 7.966 35.386 7.952C35.441 7.942 35.505 7.93 35.564 7.917C35.565 7.853 35.569 7.787 35.575 7.723C35.567 7.721 35.559 7.718 35.55 7.715C35.55 7.715 35.549 7.715 35.549 7.715C35.351 7.658 35.081 7.579 35.245 7.481C35.287 7.455 35.364 7.441 35.433 7.428C35.501 7.415 35.561 7.403 35.574 7.385C35.589 7.364 35.548 7.337 35.504 7.308C35.441 7.268 35.372 7.224 35.438 7.181C35.443 7.179 35.448 7.175 35.453 7.172C35.5 7.141 35.571 7.098 35.711 7.053C35.751 6.917 35.797 6.779 35.847 6.642C35.931 6.415 36.026 6.186 36.12 5.959C36.166 5.849 36.358 5.744 36.662 5.671C36.967 5.596 37.358 5.56 37.762 5.563C38.166 5.57 38.556 5.62 38.858 5.706C39.16 5.79 39.348 5.903 39.391 6.017C39.459 6.202 39.527 6.387 39.59 6.573C39.598 6.583 39.606 6.593 39.613 6.602C39.668 6.676 39.781 6.744 39.893 6.814C39.919 6.829 39.945 6.845 39.97 6.861Z" fill="#EA3A4B" style="fill: rgb(255, 77, 94)" />
  <path d="M20.273 39.855C20 39.419 20.107 38.574 20.166 38.11C20.167 38.101 20.168 38.093 20.169 38.084C20.183 37.974 20.186 37.87 20.19 37.748C20.198 37.457 20.21 37.064 20.379 36.242C20.371 36.004 20.367 35.765 20.366 35.526C20.363 34.89 20.373 34.252 20.394 33.618C20.435 32.665 20.443 31.708 20.681 30.372C20.813 29.707 21.021 28.866 21.581 27.983C22.134 27.093 23.025 26.413 23.76 26.075C23.847 26.033 23.934 25.994 24.02 25.958C24.067 25.933 24.115 25.908 24.163 25.884C25.094 25.417 26.044 25.17 26.646 25.145C27.407 25.12 27.891 25.173 28.29 25.22C29.513 25.178 30.683 25.203 31.808 25.206C32.727 25.209 33.644 25.189 34.584 25.154C35.238 25.129 35.903 25.1 36.567 25.072C36.753 25.063 36.94 25.055 37.126 25.047C37.55 25.029 37.969 25.012 38.388 24.993C38.738 24.928 39.07 24.854 39.378 24.787C39.811 24.692 40.197 24.61 40.516 24.583C41.284 24.519 42.153 24.627 42.802 24.713C42.81 24.714 42.819 24.715 42.827 24.716C42.931 24.729 43.028 24.742 43.118 24.753C43.672 24.732 44.231 24.726 44.807 24.746C44.843 24.773 44.878 24.8 44.914 24.828C45.364 25.184 45.957 25.254 46.879 25.469C47.278 25.563 47.736 25.691 48.221 25.865C48.532 25.977 48.646 26.139 48.742 26.271C48.77 26.309 48.796 26.346 48.824 26.377C48.828 26.381 48.832 26.385 48.837 26.389C48.926 26.45 49.25 26.537 49.577 26.804C49.899 27.068 50.069 27.345 50.189 27.532C50.49 28.03 50.644 28.322 50.552 28.727C50.435 29.17 50.385 29.476 50.389 29.736C50.396 30.195 50.569 30.467 50.713 30.695C50.779 30.796 50.838 30.893 50.872 30.988C50.981 31.3 50.883 31.749 50.745 32.085C50.635 32.352 50.749 32.882 50.891 33.285C50.945 33.437 50.947 33.643 50.948 33.885C50.95 34.136 50.95 34.426 51.01 34.736C51.159 35.521 51.229 35.94 51.285 36.275C51.301 36.371 51.316 36.459 51.331 36.549C51.348 36.65 51.364 36.761 51.379 36.875C51.406 37.083 51.43 37.309 51.453 37.54C51.497 37.97 51.539 38.411 51.595 38.765C51.554 39.136 51.5 39.504 51.453 39.814C51.382 40.283 51.313 40.779 51.244 41.271C51.184 41.697 50.912 42.101 50.477 42.392C50.041 42.683 49.48 42.837 48.904 42.819C48.327 42.801 47.777 42.613 47.36 42.295C46.944 41.976 46.698 41.554 46.666 41.119C46.631 40.614 46.595 40.113 46.57 39.589C46.552 39.19 46.537 38.856 46.516 38.511C46.484 37.969 46.451 37.398 46.43 36.826C46.413 36.351 46.403 35.876 46.406 35.399C46.409 34.665 46.424 33.93 46.446 33.197C46.449 33.121 46.451 33.046 46.454 32.971C46.309 32.356 46.175 31.746 46.123 31.319C46.08 30.967 46.151 30.711 46.21 30.492C46.252 30.344 46.287 30.21 46.277 30.08C46.273 30.03 46.265 29.959 46.256 29.886C46.252 29.858 46.249 29.83 46.245 29.801C46.216 29.584 46.175 29.283 46.145 29.033C46.132 28.919 46.109 28.785 46.132 28.857C46.157 28.904 46.144 29.003 46.405 29.418C46.535 29.62 46.811 29.918 47.109 30.095C47.406 30.275 47.602 30.316 47.623 30.317C47.588 30.301 47.554 30.284 47.52 30.267C47.19 30.099 46.861 29.866 46.566 29.659C46.147 29.361 45.763 29.116 45.535 29.118C45.143 29.123 44.719 28.988 44.323 28.885C43.945 28.786 43.601 28.714 43.399 28.801C43.184 28.892 43.008 28.862 42.757 28.802C42.723 28.794 42.688 28.786 42.65 28.777C42.426 28.726 42.151 28.663 41.775 28.637C41.341 28.605 41.034 28.524 40.772 28.455C40.404 28.359 40.127 28.287 39.715 28.422C39.257 28.573 38.782 28.672 38.407 28.632C38.237 28.614 38.041 28.623 37.84 28.634C37.644 28.644 37.443 28.655 37.249 28.643C37.176 28.639 37.107 28.632 37.037 28.62C36.825 28.584 36.648 28.48 36.489 28.389C36.44 28.36 36.391 28.333 36.346 28.31C36.178 28.32 36.01 28.331 35.842 28.345C35.816 28.364 35.789 28.386 35.76 28.408C35.617 28.521 35.441 28.659 35.218 28.738C34.864 28.863 34.54 28.826 34.195 28.787C33.927 28.757 33.646 28.726 33.33 28.771C33.114 28.802 32.87 28.868 32.627 28.933C32.449 28.98 32.275 29.027 32.109 29.06C31.942 29.093 31.787 29.112 31.659 29.101C31.566 29.092 31.479 29.028 31.396 28.965C31.395 28.964 31.395 28.964 31.395 28.964C31.389 28.959 31.383 28.955 31.378 28.951C30.781 29.052 30.195 29.161 29.625 29.286C29.576 29.309 29.528 29.332 29.48 29.355C29.246 29.468 29.024 29.58 28.89 29.717C28.744 29.866 28.351 29.995 27.967 30.146C27.715 30.244 27.469 30.352 27.293 30.469C27.19 30.538 27.07 30.495 26.946 30.454C26.832 30.415 26.715 30.377 26.626 30.428C26.583 30.453 26.544 30.499 26.51 30.547C26.48 30.59 26.453 30.634 26.426 30.667C26.408 30.688 26.362 30.694 26.315 30.689C26.293 30.687 26.27 30.684 26.248 30.68C26.204 30.671 26.166 30.656 26.141 30.64C26.164 30.691 26.242 30.626 26.235 30.756C26.288 30.798 26.361 30.845 26.459 30.89C26.529 30.923 26.614 30.956 26.702 30.989C26.822 31.033 26.946 31.077 27.043 31.122C27.119 31.158 27.147 31.191 27.11 31.208C27.093 31.216 27.063 31.22 27.035 31.224C27.004 31.229 26.976 31.233 26.975 31.243C26.975 31.25 26.995 31.261 27.02 31.273C27.06 31.294 27.112 31.32 27.111 31.352C27.105 31.473 27.076 31.64 27.052 31.825C27.024 32.032 27.002 32.258 27.017 32.445C27.034 32.655 26.953 32.966 26.875 33.293C26.852 33.389 26.828 33.484 26.808 33.58C26.78 33.709 26.756 33.839 26.743 33.952C26.722 34.147 26.768 34.35 26.812 34.545C26.866 34.781 26.918 35.006 26.848 35.199C26.834 35.238 26.746 35.287 26.637 35.348C26.559 35.391 26.471 35.441 26.389 35.497C26.391 35.742 26.388 35.987 26.383 36.232C26.395 36.24 26.407 36.249 26.419 36.258C26.419 36.258 26.42 36.258 26.42 36.258C26.699 36.458 27.082 36.731 26.856 37.119C26.799 37.217 26.692 37.279 26.596 37.336C26.502 37.391 26.418 37.44 26.401 37.511C26.381 37.593 26.439 37.688 26.503 37.793C26.592 37.939 26.691 38.103 26.6 38.268C26.594 38.279 26.587 38.291 26.58 38.304C26.515 38.424 26.419 38.6 26.225 38.777C26.175 39.298 26.116 39.822 26.051 40.342C25.963 41.056 25.864 41.775 25.763 42.486C25.741 42.645 25.719 42.793 25.697 42.951C25.637 43.373 25.373 43.779 24.949 44.08C24.525 44.379 23.979 44.551 23.413 44.55C22.848 44.554 22.301 44.387 21.874 44.091C21.448 43.794 21.181 43.389 21.118 42.967C21.095 42.81 21.072 42.661 21.049 42.504C20.969 41.968 20.891 41.437 20.817 40.9C20.805 40.864 20.794 40.828 20.783 40.792C20.703 40.523 20.543 40.276 20.382 40.027C20.345 39.97 20.308 39.912 20.273 39.855Z" fill="#EA3A4B" style="fill: rgb(255, 77, 94)" />
  <path d="M38.187 37.662C38.387 37.924 38.234 38.354 38.148 38.59C38.147 38.595 38.145 38.599 38.144 38.603C38.124 38.659 38.113 38.714 38.1 38.777C38.071 38.928 38.031 39.134 37.821 39.542C37.807 39.668 37.791 39.793 37.772 39.919C37.623 40.891 37.369 41.837 37.015 42.834C36.867 43.261 36.694 43.681 36.499 44.089C36.495 44.108 36.49 44.128 36.485 44.148C36.391 44.533 36.248 45.011 36.051 45.265C35.802 45.589 35.599 45.787 35.428 45.943C34.782 46.892 34.026 47.751 33.294 48.523C33.225 48.597 33.159 48.666 33.089 48.739C32.818 49.021 32.528 49.304 32.221 49.575C31.939 49.824 31.64 50.06 31.344 50.274C31.195 50.434 31.059 50.588 30.935 50.727C30.76 50.922 30.611 51.084 30.476 51.186C30.15 51.43 29.754 51.551 29.467 51.648C29.421 51.663 29.376 51.679 29.336 51.693C29.307 51.717 29.277 51.74 29.248 51.765C29.041 51.924 28.841 52.071 28.642 52.213C28.616 52.206 28.589 52.197 28.562 52.188C28.224 52.078 27.969 52.217 27.566 52.421C27.39 52.511 27.188 52.611 26.939 52.707C26.78 52.769 26.657 52.713 26.558 52.667C26.529 52.653 26.502 52.641 26.476 52.632C26.388 52.603 26.351 52.695 26.308 52.804C26.252 52.945 26.183 53.114 25.978 53.081C25.326 52.973 25.205 53.292 25.108 53.536C25.08 53.608 25.055 53.672 25.019 53.717C24.904 53.862 24.657 53.871 24.449 53.826C24.286 53.791 24.065 53.984 23.918 54.175C23.86 54.248 23.763 54.288 23.645 54.337C23.524 54.387 23.384 54.444 23.252 54.552C22.917 54.824 22.735 54.961 22.586 55.072C22.544 55.103 22.505 55.132 22.464 55.162C22.44 55.18 22.414 55.198 22.389 55.216C22.38 55.221 22.352 55.228 22.344 55.233C22.215 55.312 22.066 55.392 21.917 55.469C21.695 55.584 21.476 55.694 21.321 55.799C20.858 55.867 20.43 55.902 20.019 55.941C20.015 55.942 20.011 55.942 20.007 55.943L20.042 55.932C19.841 55.946 19.653 55.779 19.387 55.494C19.126 55.2 18.874 54.786 18.7 54.324C18.526 53.861 18.438 53.385 18.469 52.984C18.49 52.594 18.681 52.294 18.893 52.183C18.899 52.183 18.916 52.175 18.923 52.175C18.926 52.173 18.93 52.171 18.934 52.169C19.363 51.964 19.781 51.772 20.164 51.597C20.442 51.47 20.7 51.352 20.945 51.242L20.9 51.258C21.089 51.171 21.286 51.086 21.485 51.008C21.826 50.875 22.178 50.747 22.527 50.628C22.563 50.615 22.599 50.603 22.636 50.591C22.878 50.36 23.12 50.139 23.305 50.018C23.458 49.918 23.604 49.926 23.729 49.933C23.815 49.938 23.891 49.941 23.952 49.909C23.985 49.892 24.028 49.864 24.08 49.832C24.294 49.699 24.653 49.471 25.047 49.419C25.223 49.397 25.444 49.408 25.655 49.417C25.957 49.43 26.236 49.438 26.329 49.346C26.492 49.184 26.735 49.125 26.948 49.069C27.151 49.016 27.318 48.969 27.358 48.849C27.369 48.814 27.383 48.787 27.4 48.766C27.477 48.686 27.585 48.66 27.726 48.628C27.858 48.598 28.016 48.564 28.205 48.48C28.423 48.384 28.599 48.366 28.745 48.351C28.95 48.332 29.103 48.318 29.217 48.12C29.343 47.901 29.476 47.723 29.628 47.669C29.697 47.644 29.761 47.594 29.825 47.542C29.91 47.472 29.994 47.398 30.102 47.367C30.192 47.341 30.308 47.365 30.415 47.383C30.447 47.389 30.479 47.394 30.509 47.397C30.561 47.346 30.612 47.294 30.662 47.24C30.659 47.221 30.655 47.2 30.652 47.178C30.635 47.069 30.61 46.938 30.634 46.83C30.668 46.688 30.758 46.618 30.868 46.55C30.893 46.535 30.918 46.519 30.944 46.503C31.057 46.433 31.173 46.36 31.249 46.233C31.301 46.145 31.336 46.032 31.369 45.918C31.418 45.75 31.46 45.587 31.551 45.513C31.585 45.486 31.655 45.488 31.725 45.489C31.726 45.489 31.726 45.489 31.726 45.489C31.731 45.49 31.736 45.49 31.74 45.49C31.849 45.234 31.943 44.971 32.022 44.708C32.019 44.68 32.017 44.652 32.014 44.624C32.002 44.49 31.986 44.359 31.926 44.252C31.86 44.135 31.884 43.937 31.899 43.728C31.909 43.591 31.916 43.451 31.898 43.328C31.887 43.256 31.965 43.223 32.047 43.185C32.123 43.15 32.2 43.114 32.207 43.046C32.211 43.011 32.197 42.97 32.183 42.926C32.17 42.886 32.157 42.845 32.153 42.805C32.149 42.768 32.204 42.706 32.273 42.623C32.315 42.573 32.363 42.513 32.406 42.449C32.419 42.252 32.428 42.056 32.435 41.86C32.435 41.859 32.435 41.859 32.435 41.858C32.391 41.805 32.33 41.754 32.247 41.706C32.188 41.671 32.115 41.637 32.041 41.603C31.941 41.555 31.836 41.508 31.756 41.455C31.693 41.413 31.672 41.375 31.705 41.358C31.721 41.35 31.747 41.347 31.771 41.344C31.799 41.341 31.823 41.338 31.824 41.329C31.825 41.322 31.808 41.311 31.787 41.298C31.755 41.279 31.712 41.252 31.716 41.226C31.729 41.126 31.765 41.015 31.8 40.905C31.839 40.782 31.877 40.662 31.881 40.56C31.885 40.448 31.98 40.3 32.075 40.151C32.142 40.047 32.207 39.943 32.242 39.849C32.277 39.758 32.255 39.652 32.233 39.55C32.207 39.428 32.182 39.31 32.256 39.225C32.272 39.208 32.349 39.196 32.447 39.18C32.516 39.169 32.595 39.157 32.668 39.139C32.687 39.018 32.708 38.898 32.732 38.777C32.722 38.772 32.713 38.766 32.703 38.76C32.703 38.76 32.702 38.76 32.702 38.759C32.481 38.625 32.177 38.442 32.398 38.279C32.454 38.238 32.548 38.22 32.634 38.204C32.718 38.188 32.793 38.174 32.813 38.141C32.836 38.103 32.794 38.048 32.747 37.989C32.682 37.906 32.61 37.812 32.699 37.742C32.705 37.737 32.712 37.732 32.719 37.727C32.782 37.676 32.877 37.598 33.054 37.533C33.133 37.279 33.219 37.029 33.308 36.775C33.456 36.355 33.616 35.936 33.766 35.525C33.84 35.325 34.084 35.158 34.456 35.05C34.829 34.944 35.298 34.892 35.782 34.892C36.267 34.887 36.735 35.024 37.086 35.23C37.437 35.435 37.642 35.686 37.672 35.922C37.719 36.304 37.762 36.682 37.796 37.053C37.804 37.073 37.811 37.093 37.818 37.113C37.868 37.264 37.987 37.41 38.106 37.56C38.133 37.595 38.16 37.628 38.187 37.662Z" fill="#EA3A4B" style="fill: rgb(255, 77, 94)" />
  <path d="M42.042 44.48C42.2 44.261 42.462 44.388 42.595 44.458C42.598 44.459 42.6 44.461 42.603 44.462C42.635 44.479 42.667 44.486 42.706 44.495C42.792 44.516 42.915 44.544 43.14 44.731C43.213 44.738 43.284 44.747 43.357 44.76C44.135 44.899 44.846 45.273 45.497 45.71C45.507 45.712 45.516 45.713 45.526 45.715C45.713 45.746 45.947 45.789 46.057 45.915C46.201 46.076 46.284 46.211 46.352 46.326C46.844 46.696 47.312 47.059 47.807 47.348C47.963 47.439 48.118 47.521 48.281 47.595C48.299 47.603 48.316 47.611 48.334 47.619C48.473 47.681 48.612 47.74 48.753 47.797C48.864 47.796 48.976 47.785 49.08 47.776C49.225 47.764 49.355 47.755 49.446 47.778C49.666 47.835 49.839 48.032 49.962 48.179C49.982 48.203 50.002 48.226 50.019 48.247C50.159 48.292 50.299 48.337 50.439 48.383C50.437 48.404 50.434 48.427 50.432 48.449C50.399 48.732 50.525 48.807 50.722 48.928C50.807 48.981 50.906 49.043 51.009 49.134C51.076 49.193 51.056 49.303 51.04 49.392C51.035 49.419 51.031 49.443 51.029 49.464C51.022 49.536 51.091 49.5 51.172 49.458C51.278 49.402 51.406 49.337 51.415 49.481C51.441 49.941 51.682 49.81 51.867 49.713C51.92 49.684 51.97 49.659 52.007 49.651C52.126 49.627 52.171 49.768 52.172 49.918C52.173 50.037 52.342 50.041 52.499 50.006C52.557 49.992 52.603 50.023 52.654 50.059C52.708 50.097 52.768 50.14 52.863 50.145C52.936 50.149 53.001 50.154 53.054 50.156C53.124 50.173 53.253 50.36 53.319 50.389C53.449 50.433 53.535 50.467 53.608 50.496C53.639 50.509 53.667 50.521 53.696 50.532C53.786 50.569 53.886 50.629 53.987 50.693C54.108 50.77 54.232 50.854 54.348 50.909C54.433 51.082 54.514 51.268 54.595 51.478C54.605 51.485 54.618 51.523 54.628 51.53C54.665 51.641 54.704 51.762 54.736 51.879C54.783 52.047 54.649 52.28 54.358 52.521C54.068 52.764 53.652 53.001 53.202 53.204C52.751 53.407 52.298 53.561 51.939 53.657C51.58 53.751 51.349 53.784 51.284 53.748C51.239 53.721 51.195 53.7 51.147 53.673L51.175 53.717C51.092 53.681 50.996 53.63 50.9 53.574C50.72 53.468 50.538 53.34 50.386 53.178C50.383 53.176 50.381 53.173 50.379 53.171L50.675 53.431C50.52 53.318 50.376 53.198 50.239 53.073C50.225 53.06 50.21 53.046 50.196 53.033C49.997 53.039 49.807 53.039 49.696 53.008C49.605 52.983 49.59 52.892 49.577 52.815C49.567 52.762 49.559 52.715 49.529 52.7C49.512 52.692 49.487 52.684 49.457 52.674C49.336 52.633 49.131 52.568 49.043 52.365C49.004 52.275 48.982 52.136 48.959 52.002C48.927 51.812 48.895 51.633 48.821 51.634C48.69 51.635 48.618 51.518 48.552 51.415C48.49 51.317 48.434 51.231 48.347 51.275C48.244 51.328 48.219 51.267 48.182 51.176C48.156 51.113 48.123 51.036 48.055 50.974C47.976 50.902 47.945 50.806 47.917 50.725C47.88 50.61 47.849 50.523 47.708 50.578C47.552 50.639 47.416 50.66 47.354 50.585C47.326 50.55 47.283 50.534 47.238 50.517C47.178 50.496 47.116 50.473 47.08 50.407C47.075 50.396 47.071 50.385 47.067 50.371C47.049 50.312 47.049 50.228 47.048 50.152C47.048 50.123 47.048 50.095 47.047 50.07C47.007 50.053 46.968 50.038 46.928 50.023C46.915 50.034 46.902 50.047 46.888 50.06C46.818 50.126 46.731 50.206 46.657 50.233C46.539 50.275 46.489 50.195 46.435 50.11C46.392 50.043 46.346 49.974 46.269 49.96C46.215 49.95 46.146 49.964 46.075 49.978C45.971 49.998 45.87 50.019 45.827 49.964C45.812 49.943 45.815 49.88 45.818 49.817C45.818 49.816 45.818 49.816 45.818 49.816C45.819 49.811 45.819 49.807 45.819 49.803C45.663 49.792 45.509 49.788 45.352 49.788C45.335 49.798 45.318 49.809 45.301 49.818C45.219 49.867 45.138 49.914 45.068 49.997C44.991 50.086 44.873 50.113 44.747 50.142C44.664 50.161 44.581 50.181 44.506 50.221C44.461 50.244 44.448 50.175 44.435 50.103C44.422 50.037 44.409 49.968 44.37 49.972C44.351 49.974 44.325 49.993 44.297 50.014C44.273 50.031 44.246 50.05 44.222 50.059C44.2 50.068 44.17 50.023 44.131 49.967C44.107 49.932 44.081 49.893 44.048 49.858C43.936 49.866 43.829 49.875 43.718 49.881C43.683 49.928 43.647 49.991 43.61 50.075C43.583 50.136 43.555 50.209 43.526 50.283C43.487 50.385 43.446 50.49 43.408 50.572C43.377 50.636 43.355 50.659 43.352 50.628C43.35 50.614 43.353 50.588 43.355 50.565C43.358 50.539 43.36 50.515 43.356 50.515C43.353 50.514 43.345 50.532 43.336 50.553C43.321 50.586 43.301 50.629 43.289 50.628C43.242 50.622 43.196 50.595 43.149 50.569C43.096 50.539 43.045 50.511 42.999 50.515C42.948 50.519 42.892 50.436 42.838 50.353C42.801 50.296 42.76 50.239 42.722 50.211C42.684 50.184 42.635 50.213 42.585 50.241C42.526 50.276 42.472 50.309 42.443 50.242C42.437 50.229 42.441 50.153 42.444 50.058C42.447 49.991 42.449 49.914 42.449 49.843C42.396 49.833 42.345 49.822 42.292 49.807C42.289 49.817 42.285 49.827 42.282 49.837C42.281 49.837 42.281 49.837 42.281 49.837C42.197 50.066 42.092 50.38 42.04 50.175C42.027 50.123 42.027 50.03 42.028 49.947C42.028 49.865 42.028 49.792 42.014 49.775C41.999 49.755 41.973 49.802 41.942 49.852C41.9 49.923 41.855 50.002 41.83 49.919C41.829 49.914 41.827 49.907 41.825 49.901C41.808 49.843 41.78 49.755 41.762 49.585C41.656 49.527 41.547 49.463 41.438 49.396C41.258 49.285 41.077 49.164 40.887 49.049C40.798 48.993 40.712 48.764 40.646 48.399C40.579 48.033 40.537 47.565 40.537 47.08C40.537 46.596 40.581 46.127 40.673 45.763C40.763 45.4 40.896 45.175 41.025 45.126C41.24 45.048 41.456 44.974 41.675 44.912C41.686 44.903 41.698 44.894 41.71 44.886C41.8 44.825 41.886 44.696 41.978 44.567C41.999 44.538 42.022 44.508 42.042 44.48Z" fill="#EA3A4B" style="fill: rgb(255, 77, 94)" />
  <path d="M63.878 22.797C63.825 22.519 64.02 22.532 64.148 22.52C64.15 22.52 64.153 22.519 64.155 22.519C64.184 22.517 64.208 22.506 64.234 22.493C64.297 22.461 64.376 22.424 64.66 22.424C64.707 22.38 64.755 22.337 64.807 22.295C65.367 21.839 66.113 21.398 66.896 20.894C66.902 20.885 66.909 20.875 66.915 20.865C67.037 20.678 67.187 20.441 67.376 20.362C67.614 20.266 67.801 20.214 67.96 20.173C68.58 19.722 69.18 19.213 69.672 18.623C69.826 18.438 69.969 18.245 70.1 18.043C70.221 17.856 70.333 17.665 70.438 17.468C70.457 17.327 70.462 17.186 70.467 17.054C70.473 16.87 70.478 16.707 70.517 16.593C70.609 16.319 70.861 16.093 71.046 15.925C71.076 15.897 71.105 15.871 71.131 15.847C71.196 15.663 71.257 15.478 71.317 15.293C71.343 15.293 71.369 15.294 71.397 15.294C71.737 15.304 71.836 15.124 71.985 14.846C72.05 14.725 72.126 14.583 72.237 14.428C72.308 14.328 72.442 14.331 72.552 14.333C72.584 14.333 72.614 14.334 72.64 14.332C72.728 14.324 72.683 14.241 72.629 14.143C72.559 14.014 72.475 13.86 72.652 13.813C73.214 13.662 73.044 13.369 72.914 13.149C72.876 13.085 72.842 13.026 72.83 12.979C72.793 12.827 72.96 12.731 73.144 12.681C73.291 12.643 73.286 12.412 73.229 12.213C73.208 12.138 73.24 12.071 73.282 11.986C73.325 11.9 73.374 11.801 73.374 11.67C73.371 11.341 73.378 11.162 73.382 11.023C73.383 10.983 73.385 10.947 73.385 10.91C73.387 10.793 73.407 10.66 73.43 10.518C73.457 10.351 73.482 10.186 73.474 10.048C73.682 9.786 73.899 9.542 74.117 9.29C74.225 9.17 74.533 9.125 74.967 9.206C75.402 9.284 75.931 9.466 76.452 9.712C76.973 9.959 77.449 10.254 77.783 10.544C78.119 10.831 78.275 11.104 78.247 11.269C78.181 11.618 78.116 11.963 78.026 12.313C77.924 12.723 77.791 13.129 77.599 13.512C77.469 13.768 77.317 14.036 77.163 14.282C77.147 14.308 77.131 14.333 77.114 14.359C77.127 14.644 77.124 14.928 77.085 15.102C77.051 15.248 76.935 15.306 76.835 15.357C76.766 15.391 76.705 15.422 76.684 15.474C76.673 15.502 76.662 15.542 76.648 15.59C76.593 15.784 76.491 16.128 76.221 16.332C76.101 16.423 75.917 16.506 75.741 16.585C75.489 16.698 75.256 16.798 75.247 16.911C75.23 17.11 75.065 17.258 74.92 17.384C74.782 17.506 74.66 17.612 74.699 17.736C74.746 17.884 74.66 17.938 74.534 18.016C74.446 18.071 74.338 18.137 74.24 18.256C74.126 18.394 73.992 18.46 73.879 18.515C73.72 18.592 73.6 18.65 73.626 18.862C73.654 19.098 73.631 19.313 73.51 19.419C73.454 19.466 73.416 19.537 73.376 19.61C73.323 19.707 73.267 19.809 73.165 19.87C73.08 19.92 72.947 19.919 72.829 19.919C72.793 19.919 72.758 19.919 72.726 19.92C72.689 19.979 72.653 20.038 72.618 20.098C72.627 20.117 72.637 20.138 72.647 20.159C72.7 20.267 72.763 20.401 72.763 20.515C72.763 20.695 72.637 20.771 72.504 20.849C72.4 20.909 72.293 20.971 72.235 21.088C72.197 21.167 72.176 21.277 72.156 21.385C72.126 21.545 72.094 21.703 72.001 21.762C71.966 21.784 71.889 21.769 71.814 21.755C71.814 21.755 71.813 21.755 71.813 21.754C71.808 21.753 71.802 21.753 71.797 21.752C71.696 21.984 71.594 22.221 71.495 22.458C71.496 22.486 71.497 22.514 71.498 22.542C71.503 22.677 71.505 22.812 71.557 22.938C71.613 23.075 71.558 23.269 71.496 23.473C71.457 23.606 71.413 23.746 71.397 23.877C71.388 23.954 71.293 23.956 71.195 23.958C71.104 23.959 71.01 23.96 70.982 24.022C70.968 24.053 70.968 24.099 70.968 24.149C70.968 24.193 70.968 24.239 70.958 24.279C70.948 24.317 70.867 24.352 70.763 24.395C70.699 24.422 70.626 24.452 70.556 24.489C70.462 24.665 70.366 24.837 70.259 25.012C70.277 25.086 70.313 25.168 70.371 25.261C70.412 25.328 70.467 25.403 70.522 25.48C70.597 25.584 70.675 25.692 70.726 25.79C70.765 25.866 70.766 25.913 70.726 25.906C70.707 25.902 70.68 25.888 70.656 25.874C70.628 25.859 70.603 25.846 70.598 25.853C70.594 25.858 70.605 25.878 70.618 25.902C70.639 25.941 70.666 25.991 70.649 26.011C70.587 26.086 70.494 26.157 70.402 26.225C70.301 26.301 70.201 26.374 70.142 26.453C70.077 26.543 69.91 26.59 69.737 26.642C69.617 26.677 69.498 26.71 69.412 26.756C69.328 26.801 69.285 26.898 69.243 26.993C69.192 27.107 69.135 27.221 69.017 27.227C68.993 27.229 68.918 27.177 68.826 27.111C68.76 27.064 68.685 27.011 68.612 26.965C68.52 27.04 68.426 27.11 68.328 27.177C68.332 27.189 68.336 27.201 68.34 27.214C68.34 27.214 68.34 27.214 68.34 27.215C68.432 27.496 68.543 27.891 68.244 27.825C68.169 27.808 68.081 27.74 68.003 27.678C67.925 27.617 67.857 27.562 67.817 27.567C67.772 27.574 67.766 27.649 67.756 27.731C67.742 27.848 67.722 27.98 67.597 27.951C67.589 27.948 67.58 27.946 67.57 27.944C67.481 27.923 67.35 27.892 67.171 27.773C66.918 27.866 66.634 27.955 66.356 28.018C65.885 28.128 65.385 28.192 64.871 28.2C64.626 28.203 64.326 27.993 64.108 27.597C63.885 27.201 63.756 26.664 63.694 26.102C63.632 25.54 63.625 24.991 63.619 24.561C63.616 24.131 63.62 23.859 63.67 23.781C63.757 23.653 63.841 23.516 63.931 23.373C63.933 23.36 63.935 23.346 63.938 23.334C63.955 23.238 63.929 23.073 63.899 22.909C63.892 22.872 63.885 22.834 63.878 22.797Z" fill="#EA3A4B" style="fill: rgb(255, 77, 94)" />
  <path d="M78.854 14.099C79.237 14.121 79.725 14.544 79.997 14.784C80.002 14.788 80.007 14.793 80.012 14.797C80.076 14.853 80.141 14.901 80.218 14.958C80.403 15.097 80.638 15.263 81.129 15.786C81.248 15.873 81.37 15.965 81.509 16.081C81.519 16.088 81.535 16.102 81.557 16.119C82.524 16.813 84.15 17.784 85.539 18.673C85.694 18.773 85.849 18.87 86.005 18.965C86.025 18.974 86.046 18.983 86.067 18.991C86.474 19.16 86.982 19.348 87.276 19.537C87.648 19.778 87.903 19.955 88.114 20.102C89.402 20.705 90.794 21.157 92.276 21.533C92.293 21.537 92.311 21.542 92.328 21.546C92.774 21.66 93.222 21.767 93.67 21.866C94.099 21.96 94.53 22.048 94.961 22.131C95.219 22.144 95.467 22.147 95.697 22.15C96.02 22.153 96.307 22.157 96.537 22.187C97.013 22.25 97.526 22.408 97.939 22.543C97.998 22.564 98.057 22.584 98.113 22.602C98.176 22.623 98.237 22.642 98.294 22.658C98.622 22.686 98.961 22.698 99.306 22.7C99.328 22.718 99.35 22.737 99.372 22.756C99.649 22.994 100.023 23.018 100.619 23.035C100.879 23.042 101.182 23.047 101.541 23.067C101.774 23.079 101.893 23.165 101.99 23.235C102.019 23.255 102.046 23.274 102.073 23.29C102.168 23.343 102.266 23.286 102.384 23.218C102.536 23.131 102.716 23.025 102.96 23.119C103.733 23.415 104.073 23.204 104.33 23.045C104.405 22.998 104.472 22.956 104.543 22.932C104.658 22.893 104.793 22.891 104.936 22.911L104.838 22.916C104.979 22.925 105.122 22.957 105.248 22.996C105.447 23.059 105.824 22.944 106.106 22.815C106.213 22.767 106.362 22.751 106.537 22.732C106.719 22.713 106.929 22.69 107.15 22.624C107.708 22.456 108.007 22.369 108.246 22.301C108.315 22.281 108.377 22.263 108.442 22.244C108.642 22.186 108.895 22.128 109.151 22.069C109.457 21.999 109.771 21.928 110.01 21.854C110.501 21.842 110.999 21.837 111.519 21.848C111.532 21.845 111.571 21.846 111.584 21.844C111.73 21.853 111.87 21.863 112.007 21.872C112.313 21.892 112.606 22.06 112.844 22.348C113.082 22.637 113.239 23.022 113.273 23.432C113.307 23.842 113.213 24.249 113.001 24.57C112.79 24.89 112.474 25.094 112.142 25.14C111.994 25.161 111.848 25.18 111.707 25.2L111.761 25.197C111.301 25.281 110.817 25.379 110.332 25.472C109.569 25.618 108.791 25.752 108.003 25.838C107.452 25.898 106.897 25.946 106.34 25.982C106.282 25.986 106.225 25.989 106.167 25.993C105.798 26.111 105.426 26.22 105.124 26.289C105.097 26.288 105.016 26.299 104.99 26.296C104.918 26.308 104.85 26.317 104.788 26.324C104.52 26.356 104.322 26.304 104.153 26.26C104.037 26.23 103.933 26.203 103.83 26.209C103.774 26.212 103.697 26.219 103.605 26.228C103.23 26.263 102.588 26.321 101.995 26.219C101.732 26.174 101.426 26.085 101.134 25.997C100.715 25.871 100.326 25.746 100.124 25.771C99.769 25.814 99.364 25.739 99.003 25.661C98.66 25.587 98.359 25.512 98.172 25.555C97.949 25.606 97.771 25.544 97.509 25.444C97.458 25.424 97.405 25.404 97.348 25.381C97.215 25.327 97.056 25.268 96.856 25.213C96.538 25.125 96.323 25.02 96.141 24.931C95.884 24.805 95.692 24.71 95.368 24.737C95.009 24.767 94.642 24.756 94.372 24.662C94.249 24.62 94.104 24.592 93.953 24.563C93.753 24.524 93.543 24.483 93.36 24.405C93.21 24.34 93.096 24.233 92.997 24.139C92.966 24.109 92.936 24.081 92.906 24.056C92.782 24.03 92.656 24.004 92.53 23.979C92.507 23.987 92.483 23.996 92.458 24.005C92.329 24.053 92.174 24.112 91.995 24.119C91.918 24.122 91.842 24.117 91.773 24.106C91.587 24.078 91.42 24.008 91.246 23.935C91.058 23.857 90.863 23.775 90.625 23.736C90.463 23.709 90.273 23.7 90.084 23.689C89.803 23.673 89.523 23.653 89.343 23.577C89.276 23.549 89.228 23.485 89.181 23.421C89.181 23.421 89.181 23.42 89.18 23.42C89.177 23.416 89.174 23.411 89.171 23.407C88.708 23.327 88.241 23.24 87.773 23.142C87.73 23.142 87.686 23.142 87.643 23.141C87.432 23.139 87.225 23.134 87.076 23.172C86.914 23.214 86.561 23.149 86.189 23.068C85.945 23.015 85.695 22.957 85.481 22.924C85.357 22.905 85.27 22.812 85.181 22.716C85.1 22.627 85.015 22.535 84.897 22.496C84.838 22.477 84.768 22.469 84.693 22.459C84.627 22.452 84.558 22.443 84.489 22.426C84.424 22.409 84.306 22.323 84.154 22.209C84.068 22.144 83.972 22.072 83.868 21.998C83.86 21.992 83.852 21.986 83.844 21.98C83.526 21.857 83.209 21.73 82.892 21.599C82.807 21.607 82.726 21.631 82.648 21.675C82.592 21.708 82.535 21.751 82.477 21.796C82.398 21.856 82.316 21.919 82.229 21.957C82.161 21.987 82.1 21.982 82.078 21.943C82.068 21.925 82.066 21.9 82.064 21.877C82.062 21.852 82.061 21.829 82.047 21.822C82.037 21.817 82.02 21.826 81.999 21.836C81.965 21.852 81.921 21.873 81.881 21.854C81.734 21.782 81.572 21.682 81.416 21.585C81.24 21.475 81.07 21.367 80.923 21.299C80.757 21.223 80.558 21.046 80.357 20.864C80.217 20.737 80.077 20.609 79.945 20.511C79.816 20.414 79.655 20.353 79.495 20.288C79.303 20.21 79.11 20.125 78.983 19.974C78.959 19.943 78.954 19.864 78.951 19.764C78.95 19.695 78.944 19.611 78.934 19.529C78.87 19.48 78.805 19.428 78.737 19.37C78.683 19.323 78.603 19.257 78.521 19.191C78.512 19.194 78.502 19.198 78.492 19.201C78.492 19.202 78.492 19.202 78.492 19.202C78.271 19.284 77.969 19.399 77.847 19.114C77.816 19.041 77.825 18.954 77.833 18.875C77.841 18.799 77.846 18.729 77.812 18.69C77.773 18.645 77.694 18.64 77.607 18.635C77.486 18.628 77.348 18.619 77.288 18.498C77.284 18.49 77.279 18.481 77.275 18.472C77.231 18.385 77.164 18.256 77.136 18.069C76.843 17.826 76.549 17.578 76.256 17.327C76.134 17.223 76.012 17.118 75.89 17.012C75.614 16.754 75.306 16.515 74.984 16.313C74.775 16.182 74.624 15.938 74.533 15.607C74.442 15.276 74.416 14.886 74.397 14.482C74.383 14.076 74.65 13.692 75.008 13.463C75.367 13.231 75.807 13.167 76.195 13.275C76.79 13.439 77.36 13.664 77.908 13.948C77.933 13.961 77.959 13.973 77.984 13.986C78.011 13.994 78.038 14.002 78.065 14.011C78.264 14.074 78.484 14.083 78.703 14.092C78.754 14.094 78.804 14.096 78.854 14.099Z" fill="#EA3A4B" style="fill: rgb(255, 77, 94)" />
  <path d="M71.554 0.897C71.956 0.627 72.729 0.739 73.156 0.8C73.163 0.801 73.171 0.802 73.179 0.803C73.28 0.817 73.376 0.821 73.488 0.825C73.755 0.835 74.117 0.848 74.871 1.02C75.091 1.013 75.311 1.009 75.531 1.008C77.903 1.002 80.285 1.214 82.671 1.476C82.701 1.474 82.732 1.473 82.763 1.471C83.361 1.441 84.103 1.405 84.57 1.503C85.163 1.628 85.567 1.745 85.897 1.846C87.795 2.063 89.692 2.266 91.592 2.369C92.187 2.402 92.783 2.424 93.379 2.435C93.927 2.445 94.477 2.447 95.026 2.444C95.347 2.392 95.653 2.33 95.937 2.272C96.336 2.192 96.692 2.121 96.985 2.104C97.69 2.061 98.486 2.19 99.075 2.288C99.172 2.305 99.263 2.32 99.347 2.333C99.819 2.315 100.292 2.297 100.765 2.279C100.796 2.303 100.826 2.328 100.857 2.353C101.245 2.673 101.738 2.693 102.515 2.731C102.854 2.748 103.246 2.768 103.707 2.819C104.004 2.852 104.149 2.981 104.267 3.086C104.302 3.117 104.334 3.146 104.368 3.17C104.482 3.252 104.613 3.181 104.768 3.097C104.969 2.988 105.212 2.858 105.508 3.013C106.451 3.507 106.9 3.258 107.244 3.069C107.345 3.013 107.436 2.963 107.528 2.939C107.824 2.86 108.225 2.999 108.52 3.169C108.737 3.293 109.181 3.248 109.552 3.159C109.594 3.153 109.635 3.147 109.676 3.141C109.878 3.111 110.143 3.147 110.476 3.228C110.824 3.314 111.24 3.442 111.743 3.655C113.061 4.223 113.621 5.231 113.867 5.819C113.942 5.999 113.999 6.171 114.047 6.335C114.201 6.865 114.245 7.49 114.206 8.046C114.162 8.714 114.021 9.299 113.92 9.735C113.425 10.771 112.793 11.581 112.062 12.311C111.684 12.685 111.123 12.871 110.569 12.784C110.014 12.699 109.533 12.354 109.196 11.887C108.856 11.421 108.649 10.886 108.532 10.423C108.42 9.958 108.423 9.592 108.574 9.343C108.881 8.843 109.116 8.276 109.212 7.813C109.273 7.536 109.27 7.296 109.239 7.242C109.202 7.168 109.215 7.411 109.369 7.565C109.597 7.773 109.5 7.6 109.112 7.551C109.109 7.551 109.107 7.55 109.105 7.55C109.036 7.54 108.968 7.531 108.899 7.521C108.324 7.607 107.753 7.684 107.354 7.696C107.025 7.705 106.794 7.609 106.595 7.528C106.459 7.472 106.338 7.422 106.212 7.418C106.144 7.416 106.051 7.418 105.939 7.42C105.482 7.426 104.706 7.442 104.01 7.257C103.702 7.175 103.346 7.031 103.005 6.894C102.518 6.699 102.061 6.519 101.824 6.554C101.407 6.615 100.938 6.52 100.523 6.438C100.127 6.36 99.779 6.293 99.577 6.38C99.335 6.485 99.134 6.43 98.836 6.349C98.629 6.293 98.375 6.224 98.027 6.188C97.626 6.147 97.344 6.057 97.104 5.981C96.766 5.874 96.511 5.794 96.124 5.916C95.695 6.052 95.249 6.135 94.9 6.081C94.741 6.056 94.559 6.057 94.369 6.058C94.118 6.06 93.853 6.062 93.613 6.005C93.415 5.957 93.253 5.843 93.109 5.741C93.064 5.709 93.021 5.679 92.979 5.653C92.82 5.651 92.662 5.651 92.503 5.652C92.477 5.669 92.45 5.689 92.421 5.709C92.278 5.81 92.103 5.934 91.887 5.995C91.545 6.09 91.247 6.024 90.933 5.954C90.688 5.9 90.433 5.844 90.139 5.86C89.939 5.872 89.712 5.916 89.486 5.959C89.15 6.024 88.819 6.089 88.59 6.045C88.504 6.029 88.43 5.959 88.357 5.888C88.357 5.888 88.356 5.888 88.356 5.887C88.351 5.882 88.346 5.878 88.341 5.873C87.781 5.924 87.221 5.981 86.66 6.043C86.612 6.061 86.563 6.078 86.514 6.096C86.276 6.181 86.045 6.264 85.895 6.383C85.732 6.511 85.322 6.585 84.89 6.664C84.607 6.716 84.314 6.769 84.076 6.841C83.936 6.883 83.803 6.811 83.667 6.736C83.539 6.667 83.409 6.596 83.266 6.614C83.194 6.623 83.117 6.653 83.035 6.686C82.962 6.714 82.885 6.744 82.805 6.763C82.73 6.78 82.564 6.741 82.35 6.692C82.218 6.661 82.068 6.627 81.911 6.598C81.496 6.645 81.08 6.69 80.664 6.732C80.577 6.796 80.502 6.879 80.443 6.985C80.401 7.061 80.365 7.152 80.328 7.244C80.277 7.371 80.225 7.502 80.153 7.606C80.097 7.687 80.03 7.72 79.985 7.686C79.964 7.671 79.948 7.641 79.933 7.614C79.916 7.584 79.901 7.557 79.883 7.557C79.87 7.558 79.856 7.58 79.839 7.606C79.813 7.649 79.778 7.703 79.725 7.705C79.527 7.713 79.302 7.697 79.082 7.681C78.837 7.663 78.597 7.645 78.406 7.662C78.193 7.681 77.888 7.602 77.582 7.522C77.368 7.467 77.155 7.412 76.972 7.39C76.792 7.368 76.606 7.413 76.425 7.457C76.207 7.51 75.999 7.562 75.821 7.491C75.785 7.477 75.74 7.389 75.684 7.28C75.644 7.203 75.598 7.114 75.546 7.032C75.32 7.033 75.093 7.03 74.867 7.023C74.859 7.035 74.851 7.047 74.843 7.06C74.843 7.06 74.842 7.06 74.842 7.061C74.657 7.34 74.403 7.721 74.045 7.494C73.954 7.436 73.897 7.33 73.845 7.234C73.794 7.139 73.749 7.055 73.683 7.037C73.608 7.017 73.519 7.075 73.422 7.138C73.286 7.226 73.134 7.325 72.982 7.233C72.971 7.227 72.96 7.22 72.948 7.213C72.838 7.147 72.674 7.05 72.512 6.855C72.029 6.803 71.546 6.74 71.063 6.672C70.968 6.658 70.873 6.645 70.778 6.631C70.066 6.527 69.362 6.412 68.654 6.296C68.266 6.231 67.89 5.963 67.615 5.536C67.477 5.322 67.369 5.077 67.297 4.815C67.261 4.684 67.233 4.549 67.216 4.41C67.209 4.341 67.201 4.271 67.204 4.201C67.207 4.167 67.207 4.129 67.236 4.102C67.246 4.087 67.303 4.088 67.341 4.143C67.373 4.198 67.382 4.189 67.402 4.19C67.416 4.185 67.448 4.213 67.441 4.108C67.427 4 67.327 3.926 67.313 3.905C67.269 3.852 67.263 3.819 67.255 3.782C67.246 3.711 67.25 3.642 67.256 3.573C67.269 3.436 67.295 3.303 67.331 3.173C67.4 2.914 67.508 2.672 67.645 2.461C67.92 2.039 68.295 1.776 68.682 1.716C69.318 1.62 69.952 1.523 70.587 1.433C70.62 1.422 70.654 1.411 70.687 1.4C70.726 1.388 70.764 1.374 70.802 1.359C71.007 1.274 71.201 1.14 71.395 1.005C71.448 0.969 71.501 0.932 71.554 0.897Z" fill="#EA3A4B" style="fill: rgb(255, 77, 94)" />
  <path d="M90.128 6.391C90.324 6.514 90.25 6.762 90.209 6.897C90.208 6.9 90.208 6.902 90.207 6.905C90.197 6.938 90.195 6.967 90.193 7.003C90.188 7.089 90.18 7.201 90.061 7.442C90.064 7.469 90.066 7.496 90.067 7.524C90.07 7.564 90.071 7.604 90.072 7.644C90.087 8.359 89.956 9.096 89.798 9.844C89.799 9.853 89.801 9.862 89.802 9.872C89.831 10.056 89.866 10.285 89.803 10.434C89.722 10.622 89.645 10.752 89.579 10.858C89.453 11.457 89.346 12.057 89.319 12.653C89.311 12.84 89.31 13.027 89.32 13.213C89.329 13.385 89.343 13.556 89.363 13.726C89.41 13.824 89.465 13.917 89.516 14.002C89.587 14.123 89.65 14.231 89.674 14.321C89.683 14.359 89.69 14.398 89.693 14.438C89.695 14.443 89.692 14.459 89.694 14.464C89.707 14.655 89.656 14.855 89.616 15.011C89.609 15.042 89.601 15.071 89.595 15.098C89.625 15.245 89.656 15.394 89.689 15.541C89.673 15.552 89.656 15.562 89.639 15.572C89.427 15.704 89.433 15.858 89.442 16.103C89.445 16.209 89.449 16.332 89.436 16.478C89.427 16.571 89.343 16.62 89.274 16.66C89.254 16.672 89.235 16.683 89.219 16.695C89.167 16.733 89.225 16.772 89.293 16.817C89.381 16.877 89.487 16.948 89.393 17.046C89.094 17.355 89.3 17.487 89.456 17.588C89.502 17.618 89.543 17.644 89.567 17.672C89.641 17.762 89.569 17.891 89.468 17.989C89.389 18.067 89.469 18.219 89.57 18.337C89.608 18.38 89.609 18.441 89.61 18.511C89.611 18.584 89.612 18.668 89.655 18.759C89.763 18.988 89.814 19.111 89.856 19.209C89.868 19.237 89.879 19.264 89.89 19.29C89.908 19.331 89.925 19.383 89.941 19.433C89.955 19.482 89.969 19.529 89.983 19.582C90.017 19.709 90.051 19.84 90.097 19.943C90.038 20.212 89.974 20.473 89.861 20.866C89.802 21.071 89.564 21.271 89.239 21.297C88.913 21.327 88.521 21.248 88.127 21.128C87.733 21.008 87.371 20.835 87.096 20.689C86.822 20.538 86.644 20.485 86.619 20.428C86.57 20.309 86.514 20.071 86.467 19.84C86.438 19.699 86.413 19.552 86.396 19.404C86.378 19.254 86.367 19.102 86.368 18.95C86.368 18.74 86.378 18.529 86.395 18.317C86.397 18.295 86.399 18.273 86.401 18.251C86.299 18.073 86.205 17.897 86.172 17.772C86.144 17.668 86.197 17.593 86.243 17.528C86.275 17.483 86.302 17.444 86.297 17.404C86.295 17.383 86.288 17.353 86.281 17.319C86.249 17.175 86.194 16.932 86.29 16.708C86.332 16.609 86.417 16.493 86.498 16.382C86.613 16.223 86.721 16.075 86.686 16.002C86.624 15.873 86.671 15.724 86.713 15.591C86.753 15.465 86.787 15.355 86.717 15.294C86.633 15.222 86.665 15.158 86.712 15.063C86.745 14.996 86.784 14.915 86.798 14.806C86.811 14.702 86.851 14.621 86.89 14.554L86.891 14.574C86.899 14.559 86.907 14.545 86.915 14.531C86.978 14.419 87.026 14.337 86.925 14.22C86.813 14.092 86.739 13.955 86.767 13.843C86.779 13.793 86.773 13.735 86.766 13.675C86.757 13.596 86.747 13.515 86.781 13.436C86.809 13.371 86.887 13.316 86.955 13.266C86.976 13.251 86.996 13.236 87.014 13.222C87.011 13.172 87.007 13.122 87.002 13.072C86.989 13.065 86.974 13.057 86.959 13.049C86.883 13.008 86.79 12.959 86.741 12.893C86.664 12.789 86.704 12.693 86.746 12.591C86.779 12.512 86.814 12.429 86.795 12.338C86.782 12.276 86.746 12.206 86.71 12.136C86.657 12.033 86.604 11.931 86.63 11.857C86.64 11.83 86.689 11.804 86.738 11.778C86.738 11.778 86.739 11.778 86.739 11.778C86.742 11.776 86.745 11.774 86.749 11.773C86.701 11.598 86.65 11.424 86.597 11.249C86.583 11.235 86.57 11.22 86.557 11.205C86.492 11.133 86.429 11.064 86.342 11.02C86.248 10.973 86.188 10.846 86.126 10.712C86.085 10.625 86.042 10.533 85.988 10.461C85.956 10.418 86.006 10.373 86.057 10.327C86.105 10.285 86.154 10.242 86.139 10.196C86.132 10.174 86.109 10.15 86.085 10.125C86.064 10.103 86.041 10.08 86.027 10.055C86.014 10.032 86.039 9.977 86.072 9.908C86.092 9.865 86.115 9.817 86.133 9.766C86.095 9.635 86.059 9.504 86.024 9.373C85.978 9.347 85.918 9.326 85.842 9.31C85.787 9.298 85.722 9.289 85.655 9.28C85.564 9.268 85.471 9.255 85.396 9.234C85.337 9.218 85.313 9.198 85.336 9.182C85.347 9.175 85.368 9.169 85.387 9.164C85.409 9.157 85.428 9.152 85.427 9.146C85.427 9.142 85.411 9.138 85.392 9.133C85.362 9.126 85.323 9.116 85.321 9.099C85.313 9.036 85.323 8.963 85.332 8.892C85.343 8.812 85.353 8.735 85.34 8.673C85.324 8.604 85.379 8.505 85.433 8.403C85.471 8.333 85.509 8.263 85.523 8.203C85.538 8.145 85.504 8.084 85.472 8.026C85.432 7.957 85.395 7.889 85.444 7.83C85.454 7.818 85.516 7.802 85.594 7.782C85.649 7.768 85.712 7.752 85.77 7.734C85.769 7.69 85.769 7.646 85.77 7.602C85.771 7.573 85.772 7.544 85.773 7.516C85.765 7.513 85.756 7.511 85.748 7.509C85.747 7.509 85.747 7.509 85.747 7.509C85.547 7.455 85.273 7.379 85.433 7.265C85.474 7.236 85.55 7.217 85.618 7.199C85.686 7.182 85.746 7.168 85.758 7.146C85.772 7.122 85.73 7.095 85.684 7.066C85.62 7.025 85.549 6.978 85.614 6.93C85.618 6.927 85.623 6.923 85.628 6.919C85.674 6.885 85.742 6.831 85.88 6.778C85.915 6.627 85.955 6.476 86 6.324C86.074 6.073 86.159 5.82 86.243 5.572C86.285 5.451 86.471 5.334 86.771 5.245C86.921 5.2 87.094 5.165 87.278 5.139C87.371 5.125 87.466 5.114 87.564 5.103C87.612 5.097 87.662 5.091 87.71 5.078C87.733 5.07 87.761 5.058 87.762 5.023C87.764 4.986 87.714 4.953 87.715 4.93C87.707 4.904 87.788 4.875 87.864 4.912C87.935 4.946 87.969 4.98 88 4.997C88.057 5.016 88.106 5.014 88.157 5.025C88.257 5.035 88.355 5.046 88.449 5.059C88.637 5.083 88.812 5.117 88.966 5.161C89.273 5.248 89.466 5.365 89.513 5.49C89.59 5.694 89.666 5.892 89.736 6.093C89.745 6.104 89.753 6.114 89.761 6.124C89.819 6.202 89.934 6.272 90.049 6.342C90.076 6.358 90.103 6.374 90.128 6.391Z" fill="#EA3A4B" style="fill: rgb(255, 77, 94)" />
  <path d="M89.976 10.252C90.099 9.985 90.355 10.104 90.476 10.168C90.478 10.169 90.481 10.171 90.483 10.172C90.513 10.187 90.543 10.192 90.578 10.197C90.66 10.209 90.779 10.226 91.004 10.405C91.073 10.4 91.143 10.399 91.213 10.401C91.954 10.421 92.687 10.664 93.424 10.948C93.434 10.947 93.443 10.945 93.453 10.944C93.636 10.919 93.871 10.889 94.014 10.99C94.194 11.119 94.318 11.238 94.42 11.34C95.005 11.566 95.596 11.766 96.183 11.851C96.368 11.877 96.554 11.892 96.738 11.893C96.908 11.893 97.079 11.885 97.249 11.869C97.348 11.81 97.442 11.74 97.529 11.675C97.651 11.584 97.76 11.503 97.85 11.476C98.067 11.412 98.313 11.511 98.496 11.585C98.525 11.597 98.554 11.608 98.58 11.618C98.725 11.58 98.869 11.539 99.013 11.497C99.023 11.52 99.033 11.543 99.043 11.567C99.169 11.866 99.323 11.861 99.561 11.851C99.665 11.848 99.785 11.843 99.928 11.862C100.02 11.875 100.069 11.993 100.11 12.089C100.122 12.118 100.133 12.144 100.144 12.166C100.182 12.239 100.219 12.158 100.263 12.063C100.32 11.939 100.386 11.791 100.484 11.921C100.796 12.338 100.92 12.047 101.012 11.827C101.039 11.762 101.064 11.704 101.09 11.671C101.176 11.565 101.304 11.664 101.403 11.802C101.482 11.911 101.624 11.796 101.734 11.65C101.776 11.595 101.834 11.592 101.902 11.588C101.972 11.584 102.054 11.579 102.137 11.516C102.347 11.356 102.464 11.277 102.553 11.213C102.579 11.195 102.602 11.179 102.626 11.162C102.701 11.108 102.791 11.062 102.889 11.015C103.004 10.958 103.118 10.901 103.202 10.828C103.432 10.885 103.674 10.958 103.903 11.028C104.026 11.065 104.158 11.313 104.278 11.73C104.398 12.148 104.496 12.697 104.549 13.271C104.603 13.845 104.606 14.403 104.553 14.836C104.5 15.269 104.394 15.537 104.262 15.594C104.009 15.706 103.741 15.816 103.488 15.904C103.171 16.012 102.857 16.09 102.535 16.105C102.311 16.115 102.092 16.11 101.866 16.093C101.843 16.091 101.82 16.089 101.797 16.087C101.619 16.236 101.437 16.371 101.306 16.421C101.198 16.462 101.118 16.388 101.049 16.325C101.002 16.282 100.96 16.244 100.919 16.251C100.897 16.255 100.867 16.264 100.83 16.276C100.682 16.323 100.428 16.401 100.196 16.267C100.092 16.207 99.971 16.089 99.855 15.975C99.691 15.812 99.539 15.66 99.463 15.708C99.331 15.793 99.176 15.725 99.041 15.664C98.912 15.605 98.799 15.555 98.736 15.651C98.66 15.766 98.594 15.72 98.497 15.651C98.429 15.604 98.347 15.546 98.234 15.523C98.105 15.496 98.013 15.416 97.936 15.348C97.826 15.252 97.744 15.18 97.621 15.313C97.485 15.461 97.343 15.555 97.231 15.508C97.18 15.487 97.122 15.492 97.061 15.497C96.981 15.504 96.896 15.511 96.819 15.458C96.755 15.414 96.703 15.302 96.657 15.203C96.643 15.172 96.629 15.142 96.616 15.116C96.566 15.117 96.515 15.119 96.465 15.122C96.457 15.14 96.448 15.16 96.439 15.181C96.393 15.284 96.336 15.41 96.267 15.473C96.158 15.572 96.063 15.509 95.963 15.441C95.885 15.389 95.805 15.335 95.711 15.353C95.647 15.366 95.573 15.411 95.501 15.455C95.394 15.521 95.288 15.587 95.216 15.544C95.188 15.528 95.166 15.457 95.143 15.387C95.143 15.386 95.143 15.386 95.143 15.386C95.141 15.381 95.14 15.376 95.138 15.371C94.958 15.423 94.778 15.48 94.601 15.539C94.585 15.557 94.569 15.575 94.554 15.592C94.478 15.677 94.401 15.759 94.352 15.876C94.297 16.004 94.165 16.076 94.026 16.152C93.936 16.202 93.843 16.254 93.764 16.324C93.718 16.364 93.677 16.291 93.635 16.216C93.595 16.145 93.555 16.073 93.509 16.09C93.486 16.099 93.461 16.128 93.434 16.16C93.411 16.187 93.386 16.217 93.361 16.235C93.336 16.251 93.287 16.211 93.218 16.159C93.176 16.128 93.128 16.091 93.078 16.062C92.944 16.104 92.812 16.145 92.681 16.182C92.652 16.245 92.626 16.327 92.604 16.432C92.588 16.508 92.575 16.598 92.561 16.691C92.541 16.816 92.522 16.946 92.496 17.05C92.476 17.131 92.454 17.163 92.44 17.128C92.433 17.113 92.429 17.083 92.425 17.056C92.42 17.025 92.416 16.998 92.41 16.998C92.406 16.999 92.401 17.02 92.395 17.047C92.386 17.089 92.373 17.143 92.356 17.144C92.293 17.15 92.223 17.131 92.154 17.112C92.08 17.091 91.999 17.071 91.938 17.086C91.868 17.102 91.773 17.019 91.68 16.936C91.615 16.878 91.55 16.821 91.49 16.796C91.432 16.772 91.371 16.815 91.312 16.857C91.242 16.908 91.175 16.957 91.122 16.884C91.111 16.87 91.1 16.782 91.085 16.672C91.076 16.594 91.063 16.505 91.048 16.422C90.974 16.42 90.901 16.415 90.83 16.406C90.827 16.418 90.824 16.43 90.821 16.442C90.821 16.442 90.821 16.443 90.821 16.443C90.753 16.72 90.666 17.099 90.558 16.868C90.53 16.809 90.515 16.702 90.501 16.606C90.487 16.511 90.475 16.426 90.454 16.408C90.431 16.387 90.401 16.444 90.368 16.506C90.323 16.593 90.272 16.69 90.228 16.597C90.225 16.591 90.222 16.584 90.219 16.577C90.188 16.51 90.137 16.412 90.09 16.215C89.933 16.158 89.795 16.093 89.635 16.021C89.399 15.903 89.125 15.767 88.887 15.632C88.756 15.565 88.647 15.295 88.584 14.867C88.503 14.438 88.476 13.89 88.51 13.326C88.522 12.76 88.592 12.216 88.702 11.795C88.796 11.373 88.921 11.112 89.054 11.055C89.245 10.962 89.45 10.868 89.656 10.783C89.666 10.771 89.676 10.76 89.687 10.75C89.763 10.673 89.841 10.517 89.92 10.36C89.939 10.324 89.957 10.287 89.976 10.252Z" fill="#EA3A4B" style="fill: rgb(255, 77, 94)" />
  <path d="M91.232 29.028C91.322 29.094 91.37 29.175 91.391 29.27C91.433 29.449 91.369 29.663 91.328 29.797C91.327 29.801 91.326 29.805 91.325 29.808C91.311 29.856 91.307 29.902 91.302 29.957C91.292 30.084 91.278 30.258 91.104 30.619C91.11 30.725 91.113 30.83 91.113 30.935C91.108 32.072 90.878 33.209 90.603 34.344C90.604 34.359 90.606 34.373 90.607 34.388C90.634 34.673 90.667 35.028 90.567 35.249C90.44 35.532 90.322 35.723 90.221 35.88C89.999 36.781 89.8 37.686 89.715 38.588C89.706 38.683 89.698 38.779 89.692 38.871C89.679 39.063 89.672 39.249 89.67 39.439C89.668 39.7 89.675 39.961 89.689 40.223C89.746 40.377 89.815 40.52 89.879 40.657C89.968 40.847 90.047 41.016 90.072 41.157C90.132 41.494 90.025 41.876 89.945 42.159C89.932 42.205 89.92 42.249 89.909 42.289C89.942 42.515 89.977 42.741 90.012 42.967C89.989 42.982 89.966 42.996 89.941 43.011C89.636 43.195 89.635 43.431 89.632 43.798C89.631 43.861 89.631 43.923 89.629 43.994C89.625 44.104 89.618 44.227 89.602 44.362C89.584 44.502 89.463 44.572 89.365 44.629C89.336 44.646 89.309 44.661 89.287 44.678C89.211 44.732 89.29 44.793 89.383 44.867C89.503 44.96 89.647 45.074 89.511 45.216C89.076 45.667 89.359 45.878 89.573 46.036C89.635 46.083 89.692 46.126 89.723 46.168C89.823 46.306 89.716 46.498 89.571 46.64C89.457 46.754 89.562 46.989 89.699 47.167C89.751 47.236 89.75 47.325 89.749 47.431C89.747 47.541 89.745 47.668 89.802 47.805C89.945 48.152 90.014 48.335 90.069 48.484C90.085 48.526 90.099 48.565 90.114 48.604C90.161 48.728 90.199 48.881 90.237 49.037C90.283 49.223 90.329 49.411 90.393 49.556C90.313 49.924 90.215 50.291 90.118 50.659C90.067 50.848 89.805 51.024 89.376 51.148C88.946 51.272 88.388 51.334 87.812 51.32C87.236 51.306 86.681 51.218 86.258 51.073C85.835 50.929 85.581 50.74 85.54 50.549C85.457 50.165 85.375 49.78 85.311 49.396C85.234 48.927 85.183 48.461 85.195 47.994C85.203 47.668 85.224 47.342 85.257 47.017C85.26 46.983 85.263 46.95 85.267 46.917C85.132 46.639 85.009 46.362 84.968 46.169C84.934 46.009 85.012 45.895 85.079 45.798C85.125 45.73 85.166 45.67 85.162 45.609C85.159 45.577 85.151 45.531 85.142 45.477C85.104 45.255 85.04 44.878 85.187 44.539C85.252 44.389 85.378 44.214 85.497 44.05C85.535 43.997 85.572 43.946 85.606 43.897C85.728 43.72 85.818 43.567 85.783 43.477C85.705 43.277 85.78 43.051 85.847 42.852C85.911 42.663 85.966 42.497 85.872 42.401C85.76 42.285 85.808 42.19 85.88 42.048C85.93 41.95 85.991 41.829 86.017 41.663C86.047 41.473 86.129 41.337 86.199 41.223C86.297 41.063 86.371 40.939 86.24 40.756C86.094 40.551 86.002 40.339 86.05 40.171C86.072 40.097 86.068 40.006 86.063 39.917C86.057 39.797 86.05 39.672 86.104 39.555C86.149 39.462 86.261 39.382 86.361 39.313C86.392 39.292 86.421 39.272 86.447 39.252C86.447 39.177 86.445 39.097 86.442 39.024C86.424 39.012 86.404 38.999 86.384 38.985C86.325 38.946 86.257 38.901 86.199 38.849C86.157 38.813 86.119 38.773 86.092 38.729C85.993 38.563 86.057 38.423 86.124 38.271C86.177 38.155 86.231 38.031 86.213 37.892C86.2 37.795 86.155 37.687 86.11 37.579C86.044 37.415 85.978 37.26 86.021 37.148C86.037 37.108 86.108 37.073 86.178 37.038C86.178 37.038 86.178 37.038 86.179 37.038C86.184 37.035 86.188 37.033 86.193 37.031C86.141 36.761 86.083 36.494 86.022 36.225C86.004 36.201 85.987 36.178 85.969 36.155C85.884 36.041 85.802 35.929 85.684 35.857C85.556 35.779 85.483 35.581 85.405 35.375C85.354 35.239 85.302 35.099 85.231 34.984C85.19 34.917 85.263 34.854 85.338 34.789C85.407 34.728 85.479 34.666 85.462 34.598C85.453 34.563 85.423 34.526 85.391 34.487C85.364 34.452 85.334 34.415 85.316 34.377C85.299 34.341 85.338 34.261 85.389 34.16C85.42 34.097 85.456 34.025 85.485 33.95C85.441 33.751 85.398 33.553 85.359 33.353C85.296 33.312 85.213 33.276 85.108 33.247C85.032 33.226 84.941 33.208 84.849 33.19C84.723 33.165 84.592 33.139 84.488 33.104C84.407 33.077 84.375 33.044 84.409 33.023C84.425 33.013 84.454 33.006 84.481 32.999C84.512 32.991 84.539 32.984 84.539 32.975C84.538 32.969 84.516 32.962 84.49 32.954C84.448 32.941 84.394 32.925 84.392 32.899C84.385 32.804 84.403 32.697 84.421 32.593C84.44 32.475 84.459 32.361 84.443 32.271C84.425 32.168 84.507 32.024 84.588 31.878C84.645 31.776 84.701 31.676 84.724 31.588C84.747 31.502 84.703 31.413 84.659 31.328C84.608 31.223 84.558 31.123 84.629 31.04C84.643 31.023 84.731 31.002 84.84 30.975C84.918 30.957 85.007 30.935 85.089 30.911C85.089 30.803 85.093 30.695 85.1 30.588C85.089 30.584 85.076 30.58 85.064 30.576C85.064 30.576 85.064 30.576 85.063 30.576C84.785 30.488 84.404 30.362 84.632 30.195C84.691 30.152 84.797 30.125 84.894 30.101C84.988 30.077 85.073 30.056 85.09 30.024C85.111 29.989 85.053 29.948 84.99 29.9C84.902 29.834 84.803 29.762 84.895 29.691C84.902 29.686 84.909 29.681 84.916 29.675C84.981 29.622 85.079 29.544 85.274 29.47C85.291 29.393 85.309 29.318 85.328 29.246C85.367 29.088 85.41 28.936 85.456 28.78C85.568 28.4 85.696 28.017 85.824 27.634C85.887 27.45 86.153 27.27 86.578 27.142C87.004 27.011 87.551 26.941 88.117 26.941C88.682 26.945 89.228 27.019 89.653 27.154C90.078 27.286 90.342 27.468 90.404 27.652C90.503 27.955 90.602 28.262 90.693 28.564C90.705 28.579 90.716 28.596 90.727 28.612C90.805 28.731 90.964 28.843 91.123 28.951C91.16 28.976 91.196 29.002 91.232 29.028Z" fill="#EA3A4B" style="fill: rgb(255, 77, 94)" />
  <path d="M81.439 43.901C80.781 44.057 79.572 43.862 78.932 43.744C78.92 43.742 78.908 43.74 78.896 43.738C78.743 43.71 78.599 43.691 78.43 43.669C78.047 43.621 77.43 43.522 76.499 43.319C76.49 43.319 76.481 43.318 76.471 43.318C76.043 43.294 75.616 43.237 75.194 43.145C74.207 42.919 73.268 42.571 72.298 41.829C69.989 39.813 70.125 37.477 70.116 35.778C70.145 35.005 70.35 34.68 70.486 34.391C70.632 34.112 70.773 33.911 70.908 33.728C71.179 33.368 71.438 33.088 71.697 32.824C72.212 32.301 72.723 31.856 73.239 31.427C73.273 31.394 73.309 31.361 73.344 31.327C73.641 31.046 73.972 30.742 74.302 30.459C75.451 29.591 76.093 29.66 76.568 29.567C77.599 29.477 78.197 29.52 78.711 29.539C79.671 29.5 80.6 29.481 81.538 29.459C83.49 29.417 85.38 29.461 87.278 29.479C88.165 29.488 89.052 29.496 89.937 29.498C90.753 29.5 91.569 29.5 92.383 29.498C92.858 29.461 93.311 29.417 93.73 29.378C94.067 29.346 94.394 29.316 94.682 29.296C94.891 29.28 95.091 29.269 95.276 29.265C96.324 29.239 97.56 29.365 98.482 29.519C98.632 29.544 98.775 29.569 98.907 29.592C99.649 29.659 100.405 29.762 101.172 29.936C101.218 29.965 101.265 29.995 101.313 30.026C101.896 30.425 102.688 30.63 103.869 31.357C104.375 31.68 104.955 32.127 105.485 32.81C105.601 32.96 105.684 33.095 105.746 33.217C105.926 33.547 105.956 33.78 105.977 33.969C105.985 34.054 105.989 34.131 105.994 34.207C106.011 34.465 106.109 34.697 106.199 34.978C106.316 35.338 106.415 35.783 106.257 36.297C105.721 37.874 105.651 38.488 105.643 39.046C105.642 39.075 105.641 39.103 105.64 39.131C105.603 39.344 105.541 39.541 105.451 39.724C105.079 40.499 104.193 40.958 103.646 41.087C103.194 41.216 102.432 41.539 101.892 41.772C101.689 41.863 101.402 41.931 101.097 42.005C100.917 42.05 100.723 42.1 100.577 42.155C100.411 42.214 100.241 42.277 100.067 42.348C99.019 42.77 98.434 42.95 97.969 43.095C97.835 43.136 97.711 43.172 97.586 43.209C97.192 43.324 96.695 43.442 96.192 43.544C95.589 43.668 94.98 43.771 94.525 43.864C94.074 43.888 93.631 43.904 93.197 43.917C93.177 43.92 93.116 43.921 93.096 43.923C92.424 43.905 91.682 43.914 90.888 43.876C90.235 43.846 89.563 43.614 89.126 43.236C88.684 42.859 88.535 42.399 88.64 42.003C88.745 41.604 89.06 41.281 89.462 41.034C89.867 40.789 90.347 40.638 90.887 40.604C91.543 40.565 92.239 40.481 92.996 40.422L92.911 40.427C93.379 40.365 93.838 40.304 94.289 40.238C95.673 40.04 96.977 39.779 98.289 39.433C98.726 39.318 99.16 39.194 99.598 39.06C100.28 38.859 100.762 38.779 101.241 38.662C101.333 38.64 101.423 38.618 101.511 38.595C102.207 38.314 102.662 37.92 102.589 37.905C102.573 37.897 102.528 37.974 102.525 38.043C102.593 37.897 102.66 37.771 102.72 37.654C102.808 37.484 102.882 37.333 102.922 37.172C102.943 37.085 102.969 36.966 102.995 36.826C103.118 36.279 103.182 35.19 103.164 34.968C103.17 34.939 103.184 34.931 103.217 34.939C103.133 34.735 103.025 34.52 102.89 34.315C102.603 33.871 102.165 33.493 101.894 33.398C101.424 33.226 100.878 32.978 100.348 32.796C99.847 32.621 99.375 32.503 99.094 32.528C98.757 32.559 98.485 32.489 98.068 32.397C97.778 32.334 97.418 32.261 96.917 32.216C96.34 32.165 95.923 32.097 95.567 32.038C95.232 31.984 94.95 31.941 94.629 31.942C94.473 31.943 94.298 31.955 94.111 31.983C93.475 32.077 92.813 32.135 92.292 32.096C92.055 32.078 91.784 32.079 91.5 32.081C91.126 32.083 90.733 32.086 90.374 32.046C90.078 32.014 89.833 31.933 89.617 31.862C89.549 31.84 89.484 31.819 89.421 31.8C89.186 31.801 88.95 31.803 88.714 31.806C88.676 31.819 88.636 31.833 88.594 31.848C88.384 31.922 88.126 32.014 87.807 32.061C87.301 32.136 86.859 32.096 86.39 32.055C86.025 32.024 85.647 31.992 85.213 32.015C84.919 32.031 84.581 32.072 84.252 32.115C83.759 32.178 83.275 32.245 82.938 32.231C82.811 32.226 82.703 32.181 82.591 32.137C82.591 32.136 82.591 32.136 82.59 32.136C82.582 32.133 82.575 32.13 82.568 32.127C82.292 32.155 82.007 32.185 81.736 32.219C81.192 32.285 80.648 32.353 80.11 32.426C80.041 32.444 79.971 32.463 79.899 32.481C79.556 32.571 79.226 32.66 79.016 32.765C78.79 32.879 78.2 32.987 77.637 33.126C77.275 33.215 76.92 33.329 76.793 33.428C76.716 33.484 76.691 33.452 76.722 33.365C76.726 33.352 76.732 33.337 76.737 33.322C76.595 33.39 76.451 33.469 76.331 33.588C76.258 33.66 76.189 33.748 76.118 33.843C76.054 33.926 75.988 34.014 75.913 34.1C75.843 34.18 75.651 34.316 75.412 34.494C75.265 34.603 75.099 34.729 74.934 34.866C74.568 35.28 74.201 35.74 74.045 36.041C74.049 36.119 74.086 36.178 74.157 36.206C74.207 36.226 74.275 36.234 74.351 36.216C74.451 36.178 74.589 36.14 74.673 35.771C74.674 35.772 74.674 35.773 74.675 35.774C74.734 35.844 74.758 35.925 74.735 35.98C74.724 36.005 74.703 36.025 74.684 36.043C74.663 36.063 74.644 36.082 74.645 36.104C74.646 36.12 74.662 36.136 74.682 36.155C74.713 36.185 74.753 36.225 74.758 36.286C74.775 36.515 74.785 36.763 74.807 36.986C74.832 37.234 74.871 37.447 74.928 37.583C74.99 37.738 75.018 37.934 75.037 38.056C75.049 38.134 75.055 38.189 75.072 38.226C75.077 38.233 75.084 38.24 75.091 38.247C75.157 38.316 75.299 38.363 75.444 38.397C75.62 38.439 75.802 38.466 75.941 38.559C75.969 38.578 75.991 38.649 76.023 38.738C76.046 38.801 76.075 38.873 76.113 38.941C76.32 38.987 76.533 39.019 76.748 39.037C76.772 39.039 76.796 39.041 76.821 39.043C76.835 39.035 76.851 39.028 76.866 39.02C76.866 39.02 76.867 39.02 76.867 39.019C77.206 38.845 77.644 38.618 78.16 38.841C78.293 38.898 78.367 38.983 78.436 39.061C78.502 39.136 78.563 39.204 78.658 39.228C78.766 39.255 78.9 39.229 79.046 39.201C79.251 39.161 79.476 39.115 79.688 39.205C79.702 39.211 79.718 39.217 79.734 39.224C79.887 39.288 80.112 39.381 80.33 39.542C81.014 39.646 81.69 39.742 82.357 39.817C82.615 39.846 82.871 39.871 83.125 39.892C84.042 39.962 84.954 40.037 85.87 40.111C86.449 40.159 87.004 40.351 87.411 40.657C87.819 40.962 88.05 41.354 88.047 41.758C88.047 42.161 87.813 42.551 87.401 42.853C86.991 43.154 86.433 43.341 85.852 43.383C84.934 43.447 84.02 43.511 83.101 43.569C83.069 43.571 83.036 43.573 83.004 43.575C82.95 43.583 82.896 43.59 82.842 43.597C82.441 43.646 82.069 43.745 81.696 43.838C81.61 43.859 81.525 43.88 81.439 43.901Z" fill="#EA3A4B" style="fill: rgb(255, 77, 94)" />
  <path d="M67.589 51.734C67.892 51.519 68.508 51.553 68.846 51.572C68.852 51.572 68.858 51.572 68.865 51.572C68.947 51.577 69.019 51.574 69.108 51.57C69.25 51.564 69.413 51.557 69.69 51.575C69.833 51.584 70.005 51.6 70.214 51.626C70.388 51.608 70.562 51.593 70.736 51.579C72.615 51.436 74.505 51.454 76.395 51.499C76.419 51.496 76.443 51.493 76.467 51.49C76.936 51.433 77.517 51.362 77.889 51.404C78.362 51.456 78.685 51.513 78.951 51.564C80.452 51.597 81.951 51.61 83.444 51.536C83.911 51.512 84.378 51.48 84.844 51.437C85.273 51.398 85.701 51.352 86.129 51.3C86.375 51.234 86.607 51.162 86.823 51.094C87.126 50.999 87.395 50.915 87.62 50.874C88.163 50.775 88.79 50.783 89.256 50.789C89.333 50.789 89.404 50.79 89.471 50.791C89.834 50.726 90.197 50.659 90.559 50.591C90.585 50.605 90.612 50.619 90.639 50.633C90.974 50.813 91.357 50.769 91.96 50.697C92.223 50.666 92.527 50.629 92.888 50.603C93.12 50.587 93.248 50.657 93.353 50.715C93.384 50.732 93.413 50.748 93.442 50.76C93.541 50.801 93.632 50.733 93.74 50.652C93.88 50.548 94.047 50.422 94.296 50.487C95.088 50.696 95.397 50.45 95.629 50.264C95.698 50.21 95.759 50.16 95.825 50.129C96.038 50.027 96.364 50.059 96.616 50.128C96.816 50.183 97.185 50.054 97.459 49.916C97.563 49.863 97.709 49.843 97.882 49.818C98.061 49.793 98.268 49.763 98.484 49.69C99.028 49.505 99.318 49.411 99.55 49.335C99.617 49.313 99.678 49.293 99.74 49.273C99.935 49.208 100.179 49.142 100.425 49.076C100.72 48.996 101.019 48.914 101.243 48.831C101.851 48.789 102.461 48.757 103.07 48.721C103.383 48.703 103.709 48.837 103.977 49.1C104.245 49.364 104.435 49.735 104.504 50.141C104.573 50.546 104.516 50.959 104.346 51.297C104.176 51.634 103.905 51.866 103.597 51.95C102.976 52.117 102.354 52.282 101.73 52.43C100.969 52.611 100.204 52.767 99.432 52.876C98.892 52.953 98.351 53.017 97.808 53.072C97.753 53.078 97.697 53.083 97.641 53.089C97.201 53.249 96.759 53.4 96.444 53.473C96.183 53.534 95.984 53.504 95.814 53.479C95.697 53.462 95.593 53.446 95.492 53.463C95.438 53.472 95.365 53.488 95.276 53.506C94.913 53.582 94.297 53.709 93.717 53.677C93.46 53.663 93.158 53.611 92.869 53.561C92.456 53.489 92.072 53.421 91.888 53.476C91.565 53.571 91.181 53.563 90.842 53.554C90.518 53.546 90.236 53.539 90.084 53.624C89.903 53.725 89.738 53.709 89.493 53.684C89.323 53.667 89.114 53.647 88.834 53.658C88.511 53.671 88.278 53.637 88.081 53.607C87.802 53.566 87.593 53.535 87.298 53.659C86.97 53.797 86.623 53.897 86.341 53.891C86.213 53.887 86.068 53.905 85.918 53.923C85.718 53.947 85.508 53.971 85.313 53.951C85.152 53.935 85.014 53.867 84.892 53.807C84.854 53.789 84.817 53.771 84.782 53.755C84.656 53.768 84.531 53.781 84.405 53.794C84.386 53.809 84.366 53.825 84.345 53.842C84.239 53.925 84.109 54.028 83.942 54.088C83.678 54.183 83.436 54.16 83.182 54.135C82.984 54.115 82.777 54.094 82.546 54.128C82.388 54.151 82.211 54.199 82.034 54.247C81.773 54.318 81.514 54.387 81.329 54.372C81.26 54.367 81.197 54.322 81.135 54.277C81.134 54.277 81.134 54.276 81.134 54.276C81.129 54.273 81.125 54.27 81.121 54.267C80.68 54.342 80.239 54.421 79.799 54.502C79.761 54.518 79.724 54.534 79.686 54.55C79.502 54.626 79.324 54.7 79.212 54.794C79.09 54.896 78.769 54.975 78.431 55.059C78.209 55.113 77.98 55.169 77.795 55.235C77.686 55.273 77.577 55.23 77.465 55.186C77.36 55.144 77.252 55.101 77.14 55.123C77.084 55.134 77.025 55.16 76.961 55.188C76.905 55.212 76.846 55.239 76.783 55.257C76.725 55.273 76.591 55.256 76.419 55.233C76.313 55.219 76.193 55.204 76.067 55.193C75.74 55.251 75.414 55.307 75.087 55.361C75.022 55.411 74.967 55.475 74.925 55.554C74.896 55.61 74.872 55.677 74.847 55.745C74.814 55.839 74.78 55.935 74.728 56.013C74.688 56.074 74.636 56.102 74.599 56.08C74.582 56.07 74.567 56.05 74.554 56.032C74.539 56.011 74.526 55.993 74.512 55.994C74.501 55.995 74.492 56.012 74.48 56.032C74.461 56.063 74.436 56.104 74.394 56.108C74.239 56.126 74.06 56.127 73.885 56.128C73.69 56.129 73.5 56.131 73.351 56.154C73.183 56.18 72.938 56.14 72.693 56.101C72.522 56.074 72.35 56.047 72.205 56.042C72.062 56.037 71.917 56.08 71.777 56.122C71.609 56.172 71.447 56.221 71.303 56.181C71.274 56.173 71.234 56.113 71.184 56.038C71.149 55.985 71.108 55.925 71.063 55.87C70.885 55.883 70.707 55.894 70.528 55.903C70.523 55.912 70.517 55.921 70.511 55.931C70.511 55.931 70.511 55.931 70.511 55.931C70.403 56.104 70.262 56.328 70.053 56.324C70.006 56.323 69.957 56.312 69.904 56.287C69.829 56.252 69.778 56.179 69.733 56.114C69.688 56.049 69.649 55.992 69.595 55.983C69.534 55.973 69.466 56.02 69.393 56.071C69.292 56.142 69.176 56.221 69.05 56.164C69.041 56.16 69.032 56.156 69.022 56.152C68.933 56.112 68.798 56.052 68.658 55.923C68.274 55.913 67.89 55.897 67.504 55.876C66.86 55.841 66.219 55.792 65.568 55.739C65.254 55.712 64.94 55.539 64.704 55.245C64.585 55.099 64.491 54.928 64.426 54.744C64.391 54.652 64.367 54.557 64.348 54.459C64.339 54.41 64.333 54.361 64.327 54.311C64.325 54.286 64.325 54.261 64.321 54.236C64.32 54.23 64.32 54.224 64.319 54.217C64.319 54.214 64.318 54.211 64.316 54.208C64.315 54.206 64.315 54.205 64.308 54.204C64.3 54.208 64.314 54.19 64.255 54.225C64.239 54.232 64.199 54.298 64.227 54.349C64.251 54.393 64.27 54.395 64.279 54.401C64.297 54.41 64.3 54.409 64.305 54.41C64.337 54.426 64.318 54.437 64.322 54.45C64.314 54.462 64.349 54.478 64.29 54.485C64.282 54.483 64.276 54.486 64.238 54.468C64.222 54.457 64.171 54.445 64.142 54.344C64.12 54.231 64.197 54.166 64.217 54.154C64.303 54.106 64.285 54.126 64.297 54.12C64.308 54.117 64.308 54.115 64.311 54.114C64.314 54.11 64.314 54.107 64.315 54.104C64.316 54.098 64.317 54.091 64.317 54.085C64.32 54.06 64.318 54.035 64.32 54.01C64.322 53.96 64.326 53.91 64.332 53.861C64.344 53.762 64.36 53.666 64.386 53.572C64.434 53.384 64.509 53.208 64.607 53.051C64.805 52.739 65.083 52.535 65.383 52.473C65.87 52.374 66.369 52.27 66.857 52.171C66.883 52.161 66.909 52.151 66.934 52.142C67.124 52.072 67.297 51.946 67.469 51.82C67.509 51.791 67.551 51.762 67.589 51.734Z" fill="#EA3A4B" style="fill: rgb(255, 77, 94)" />
  <path d="M100.955 43.762C101.177 43.681 101.345 43.897 101.435 44.017C101.436 44.019 101.438 44.021 101.44 44.023C101.461 44.051 101.485 44.072 101.514 44.097C101.581 44.155 101.674 44.236 101.799 44.486C101.859 44.526 101.919 44.569 101.976 44.613C102.078 44.693 102.176 44.775 102.272 44.862C102.689 45.249 103.062 45.709 103.439 46.193C103.446 46.198 103.454 46.202 103.462 46.207C103.616 46.298 103.808 46.41 103.878 46.551C103.968 46.73 104.016 46.869 104.053 46.987C104.422 47.457 104.808 47.919 105.244 48.35C105.381 48.486 105.523 48.618 105.672 48.75C105.742 48.811 105.813 48.873 105.884 48.935C105.942 48.984 106 49.032 106.06 49.078C106.155 49.107 106.252 49.126 106.342 49.143C106.469 49.168 106.582 49.189 106.657 49.228C106.837 49.323 106.967 49.525 107.066 49.677C107.083 49.702 107.098 49.726 107.113 49.747C107.236 49.815 107.362 49.882 107.489 49.95C107.486 49.968 107.483 49.987 107.479 50.006C107.435 50.248 107.552 50.341 107.736 50.488C107.816 50.552 107.909 50.628 108.007 50.729C108.071 50.796 108.05 50.89 108.035 50.968C108.03 50.991 108.026 51.012 108.024 51.031C108.019 51.096 108.084 51.076 108.162 51.054C108.264 51.025 108.385 50.99 108.396 51.124C108.427 51.547 108.657 51.476 108.835 51.425C108.887 51.41 108.934 51.396 108.969 51.396C109.084 51.398 109.131 51.536 109.135 51.674C109.139 51.784 109.304 51.824 109.455 51.824C109.504 51.824 109.544 51.852 109.588 51.889L109.547 51.854C109.555 51.86 109.562 51.865 109.569 51.871C109.622 51.914 109.683 51.963 109.776 51.984C110.008 52.036 110.128 52.066 110.225 52.091C110.252 52.097 110.278 52.104 110.303 52.11C110.384 52.13 110.475 52.165 110.567 52.201C110.676 52.243 110.787 52.285 110.884 52.3C110.998 52.442 111.105 52.586 111.227 52.744C111.232 52.746 111.243 52.758 111.248 52.76C111.285 52.806 111.313 52.845 111.334 52.878C111.387 52.963 111.314 53.138 111.191 53.422C111.064 53.705 110.889 54.064 110.668 54.412C110.447 54.759 110.193 55.069 109.932 55.26C109.674 55.453 109.423 55.498 109.293 55.434C109.242 55.41 109.197 55.39 109.159 55.376L109.177 55.39C108.995 55.315 108.799 55.228 108.614 55.135C108.333 54.993 108.069 54.836 107.835 54.644C107.715 54.546 107.599 54.443 107.487 54.337C107.48 54.327 107.445 54.307 107.438 54.295C107.4 54.257 107.362 54.218 107.326 54.179C107.312 54.164 107.298 54.149 107.284 54.133C107.09 54.097 106.905 54.057 106.794 54.004C106.703 53.961 106.684 53.873 106.669 53.799C106.659 53.748 106.649 53.702 106.617 53.681C106.6 53.669 106.575 53.656 106.546 53.641C106.423 53.575 106.215 53.467 106.118 53.255C106.075 53.162 106.047 53.026 106.02 52.895C105.981 52.71 105.943 52.535 105.867 52.516C105.733 52.482 105.655 52.352 105.584 52.236C105.518 52.126 105.458 52.029 105.368 52.043C105.259 52.06 105.232 51.994 105.192 51.896C105.164 51.828 105.129 51.745 105.056 51.662C104.972 51.566 104.94 51.464 104.914 51.377C104.877 51.255 104.849 51.163 104.695 51.155C104.524 51.145 104.371 51.1 104.31 50.999C104.282 50.953 104.235 50.916 104.188 50.878C104.169 50.862 104.149 50.847 104.131 50.83C104.096 50.799 104.063 50.762 104.048 50.713C104.029 50.654 104.048 50.564 104.064 50.484C104.069 50.459 104.074 50.435 104.077 50.414C104.042 50.385 104.008 50.358 103.972 50.331C103.958 50.336 103.943 50.342 103.928 50.348C103.85 50.378 103.755 50.416 103.679 50.412C103.56 50.407 103.523 50.319 103.482 50.225C103.451 50.153 103.417 50.077 103.342 50.035C103.29 50.006 103.219 49.992 103.146 49.977C103.04 49.955 102.934 49.933 102.899 49.868C102.886 49.844 102.899 49.791 102.912 49.738C102.912 49.738 102.912 49.737 102.912 49.737C102.913 49.733 102.914 49.73 102.915 49.726C102.76 49.656 102.602 49.59 102.441 49.525C102.422 49.527 102.403 49.528 102.383 49.529C102.289 49.535 102.199 49.542 102.112 49.582C102.018 49.626 101.887 49.595 101.749 49.562C101.658 49.54 101.565 49.517 101.476 49.514C101.424 49.513 101.423 49.447 101.421 49.38C101.42 49.316 101.419 49.252 101.376 49.236C101.355 49.227 101.323 49.23 101.289 49.234C101.259 49.236 101.227 49.239 101.2 49.235C101.174 49.231 101.15 49.178 101.119 49.11C101.1 49.068 101.079 49.02 101.052 48.974C100.931 48.923 100.809 48.87 100.689 48.815C100.64 48.834 100.586 48.867 100.525 48.916C100.482 48.951 100.434 48.995 100.384 49.041C100.317 49.103 100.247 49.167 100.184 49.212C100.134 49.247 100.104 49.252 100.107 49.225C100.109 49.212 100.117 49.192 100.125 49.174C100.135 49.153 100.143 49.135 100.138 49.132C100.134 49.13 100.121 49.139 100.106 49.151C100.081 49.17 100.049 49.194 100.034 49.185C99.982 49.151 99.933 49.097 99.886 49.045C99.833 48.987 99.781 48.93 99.726 48.902C99.665 48.87 99.624 48.765 99.584 48.66C99.555 48.586 99.527 48.513 99.492 48.464C99.476 48.441 99.453 48.426 99.426 48.416C99.399 48.407 99.367 48.403 99.337 48.4C99.268 48.393 99.2 48.385 99.194 48.316C99.192 48.302 99.221 48.245 99.257 48.174C99.283 48.124 99.312 48.066 99.336 48.011C99.287 47.973 99.239 47.932 99.193 47.891C99.186 47.897 99.179 47.902 99.172 47.908C99.172 47.908 99.171 47.908 99.171 47.908C99.009 48.035 98.791 48.211 98.811 48.023C98.816 47.976 98.849 47.905 98.879 47.841C98.908 47.779 98.934 47.723 98.927 47.702C98.919 47.678 98.874 47.697 98.826 47.718C98.758 47.746 98.684 47.78 98.689 47.702C98.689 47.696 98.69 47.691 98.69 47.685C98.693 47.629 98.697 47.547 98.742 47.408C98.655 47.3 98.571 47.188 98.488 47.073C98.35 46.882 98.214 46.684 98.079 46.492C98.013 46.397 98.03 46.185 98.122 45.887C98.216 45.59 98.374 45.231 98.563 44.874C98.75 44.516 99.001 44.208 99.238 43.996C99.478 43.785 99.688 43.691 99.824 43.724C100.045 43.779 100.259 43.834 100.471 43.898C100.485 43.897 100.499 43.897 100.512 43.897C100.612 43.896 100.739 43.846 100.867 43.796C100.896 43.784 100.926 43.773 100.955 43.762Z" fill="#EA3A4B" style="fill: rgb(255, 77, 94)" />
</svg>