<svg width="48" height="48" viewBox="0 0 48 48" fill="none" xmlns="http://www.w3.org/2000/svg">
<path d="M40.6986 21.0401L37.2666 31.3401L37.2531 31.3806C34.8401 38.6156 33.6333 42.234 31.8626 43.2641C31.033 43.7457 30.0908 43.9993 29.1316 43.9993C28.1724 43.9993 27.2302 43.7457 26.4006 43.2641C24.6266 42.2321 23.4146 38.6001 20.9946 31.3401C20.0103 29.0193 19.021 28.104 16.6546 27.0021L16.6394 26.997C9.38954 24.5784 5.76389 23.3689 4.73461 21.5941C4.25343 20.7648 4 19.823 4 18.8641C4 17.9053 4.25343 16.9635 4.73461 16.1341C5.76461 14.3601 9.39461 13.1481 16.6546 10.7281L26.9526 7.29612C35.9506 4.29612 40.4466 2.79812 42.8226 5.17212C45.1986 7.54612 43.6986 12.0441 40.6986 21.0401Z" fill="#0071DF"/>
</svg>
